<svg width="110" height="25" viewBox="0 0 110 25" fill="none" xmlns="http://www.w3.org/2000/svg">
<g id="Clip path group">
<mask id="mask0_631_78" style="mask-type:luminance" maskUnits="userSpaceOnUse" x="0" y="0" width="110" height="25">
<g id="clip0_7747_53282">
<path id="Vector" d="M0.248047 0.342285H109.67V24.6582H0.248047V0.342285Z" fill="white"/>
</g>
</mask>
<g mask="url(#mask0_631_78)">
<g id="Group">
<path id="Vector_2" d="M48.5471 20.8058V14.449H54.457V20.8058H58.8897V4.10547H54.4559V10.4623H48.5471V4.10547H44.1133V20.8058H48.5471ZM73.4211 20.8058V16.8169H65.2214V14.449H72.1901V10.4623H65.2214V8.09327H73.4223V4.10547H60.7887V20.8058H73.4211ZM79.657 20.8058V14.823H80.0024C81.3565 14.823 81.972 15.2468 82.6365 16.3433L85.3697 20.8058H90.4191L88.0551 17.0427C87.2185 15.7204 86.4788 14.6493 84.7805 14.2255C87.5867 13.9754 89.7295 12.5547 89.7295 9.33917C89.7295 5.65126 86.9712 4.10547 83.13 4.10547H75.2254V20.8058H79.657ZM83.179 8.09327C84.4351 8.09327 85.0506 8.61664 85.0506 9.66338C85.0506 10.6858 84.4351 11.2347 83.179 11.2347H79.657V8.09327H83.179ZM103.994 20.8058V16.8169H95.7955V14.449H102.763V10.4623H95.7955V8.09327H103.995V4.10547H91.3617V20.8058H103.994ZM109.658 20.8035V16.5425H105.225V20.8035H109.658Z" fill="#D0D0D0"/>
<path id="Vector_3" d="M109.659 20.8035V16.5425H105.227V20.8035H109.659Z" fill="#D0D0D0"/>
<path id="Vector_4" d="M14.3915 21.1659L14.4337 21.1879L14.4815 21.1845L34.5387 19.9525L32.7549 23.2096L12.5165 24.4532L0.496094 18.4136L2.31181 15.0962L14.3915 21.1659ZM18.1323 7.20399L17.4838 4.08924L19.2163 0.819336L21.562 8.77294L18.1323 7.20399ZM15.2144 13.9244L7.51388 14.4629L1.60171 11.5357L3.42996 8.19862L15.2133 13.9244H15.2144Z" fill="#212528" stroke="#D0D0D0" stroke-width="0.364353"/>
<path id="Vector_5" d="M34.8568 19.7487L14.4771 21.0015L2.13867 14.8415L15.4995 14.0217L3.35257 7.95779L9.31831 2.84566L21.6898 9.00337L19.2643 0.342285L31.0863 6.21052L34.8568 19.7487Z" fill="#D0D0D0"/>
</g>
</g>
</g>
</svg>
