<svg width="33" height="32" viewBox="0 0 33 32" fill="none" xmlns="http://www.w3.org/2000/svg">
<g id="pepicons-pop:expand">
<g id="Group">
<g id="Group 1948757624">
<path id="Vector" d="M13.7592 12.4141C13.3397 12.4068 12.9399 12.2351 12.6459 11.9358C12.3518 11.6366 12.187 11.2339 12.187 10.8143C12.187 10.3948 12.3518 9.99207 12.6459 9.69285C12.9399 9.39363 13.3397 9.22188 13.7592 9.21459L27.8102 9.21459C28.0226 9.2109 28.2336 9.24955 28.431 9.32829C28.6283 9.40702 28.808 9.52427 28.9595 9.67319C29.111 9.82211 29.2314 9.99971 29.3135 10.1956C29.3957 10.3916 29.438 10.6019 29.438 10.8143C29.438 11.0268 29.3957 11.2371 29.3135 11.4331C29.2314 11.629 29.111 11.8066 28.9595 11.9555C28.808 12.1044 28.6283 12.2217 28.431 12.3004C28.2336 12.3791 28.0226 12.4178 27.8102 12.4141L13.7592 12.4141Z" fill="#FE9C0F"/>
<path id="Union" fill-rule="evenodd" clip-rule="evenodd" d="M21.6852 6.28838C21.6852 6.71272 21.8537 7.11969 22.1538 7.41975L25.5482 10.8141L22.1537 14.2086C21.8536 14.5087 21.6851 14.9156 21.6851 15.34C21.6851 15.7643 21.8536 16.1713 22.1537 16.4714C22.4538 16.7714 22.8607 16.94 23.2851 16.94C23.7094 16.94 24.1164 16.7714 24.4164 16.4714L28.9419 11.9459C29.187 11.7008 29.3443 11.3845 29.3938 11.0456C29.4049 10.9693 29.4106 10.8919 29.4106 10.8139C29.4106 10.3895 29.2421 9.98255 28.942 9.68249L24.4165 5.15701C24.1165 4.85695 23.7095 4.68838 23.2852 4.68838C22.8608 4.68838 22.4538 4.85695 22.1538 5.15701C21.8537 5.45706 21.6852 5.86403 21.6852 6.28838Z" fill="#E6E6E6"/>
</g>
<g id="Group 1948757625">
<path id="Vector_2" d="M5.18109 23.4288C4.76162 23.4215 4.36179 23.2497 4.06773 22.9505C3.77367 22.6513 3.60889 22.2485 3.60889 21.829C3.60889 21.4095 3.77367 21.0067 4.06773 20.7075C4.3618 20.4083 4.76162 20.2365 5.18109 20.2292L19.2321 20.2292C19.4445 20.2255 19.6555 20.2642 19.8528 20.3429C20.0502 20.4217 20.2298 20.5389 20.3814 20.6878C20.5329 20.8368 20.6532 21.0144 20.7354 21.2103C20.8175 21.4062 20.8599 21.6165 20.8599 21.829C20.8599 22.0415 20.8175 22.2518 20.7354 22.4477C20.6532 22.6436 20.5329 22.8212 20.3814 22.9702C20.2298 23.1191 20.0502 23.2363 19.8528 23.3151C19.6555 23.3938 19.4445 23.4324 19.2321 23.4288L5.18109 23.4288Z" fill="#FE9C0F"/>
<g id="Union_2">
<path fill-rule="evenodd" clip-rule="evenodd" d="M4.05589 20.6912C4.05393 20.6932 4.05197 20.6951 4.05001 20.6971C3.74995 20.9971 3.58138 21.4041 3.58138 21.8284C3.58138 22.2528 3.74995 22.6597 4.05001 22.9598L8.57549 27.4853C8.87555 27.7853 9.28252 27.9539 9.70686 27.9539C10.1312 27.9539 10.5382 27.7853 10.8382 27.4853C11.1383 27.1852 11.3069 26.7783 11.3069 26.3539C11.3069 25.9296 11.1383 25.5226 10.8382 25.2225L7.44414 21.8284L10.8384 18.4342C11.1385 18.1341 11.307 17.7271 11.307 17.3028C11.307 16.8785 11.1385 16.4715 10.8384 16.1714C10.5384 15.8714 10.1314 15.7028 9.70705 15.7028C9.2827 15.7028 8.87573 15.8714 8.57568 16.1714L4.05589 20.6912Z" fill="black"/>
<path fill-rule="evenodd" clip-rule="evenodd" d="M4.05589 20.6912C4.05393 20.6932 4.05197 20.6951 4.05001 20.6971C3.74995 20.9971 3.58138 21.4041 3.58138 21.8284C3.58138 22.2528 3.74995 22.6597 4.05001 22.9598L8.57549 27.4853C8.87555 27.7853 9.28252 27.9539 9.70686 27.9539C10.1312 27.9539 10.5382 27.7853 10.8382 27.4853C11.1383 27.1852 11.3069 26.7783 11.3069 26.3539C11.3069 25.9296 11.1383 25.5226 10.8382 25.2225L7.44414 21.8284L10.8384 18.4342C11.1385 18.1341 11.307 17.7271 11.307 17.3028C11.307 16.8785 11.1385 16.4715 10.8384 16.1714C10.5384 15.8714 10.1314 15.7028 9.70705 15.7028C9.2827 15.7028 8.87573 15.8714 8.57568 16.1714L4.05589 20.6912Z" fill="#FDBF1C"/>
<path fill-rule="evenodd" clip-rule="evenodd" d="M4.05589 20.6912C4.05393 20.6932 4.05197 20.6951 4.05001 20.6971C3.74995 20.9971 3.58138 21.4041 3.58138 21.8284C3.58138 22.2528 3.74995 22.6597 4.05001 22.9598L8.57549 27.4853C8.87555 27.7853 9.28252 27.9539 9.70686 27.9539C10.1312 27.9539 10.5382 27.7853 10.8382 27.4853C11.1383 27.1852 11.3069 26.7783 11.3069 26.3539C11.3069 25.9296 11.1383 25.5226 10.8382 25.2225L7.44414 21.8284L10.8384 18.4342C11.1385 18.1341 11.307 17.7271 11.307 17.3028C11.307 16.8785 11.1385 16.4715 10.8384 16.1714C10.5384 15.8714 10.1314 15.7028 9.70705 15.7028C9.2827 15.7028 8.87573 15.8714 8.57568 16.1714L4.05589 20.6912Z" fill="#E6E6E6"/>
</g>
</g>
</g>
</g>
</svg>
