<svg width="32" height="32" viewBox="0 0 32 32" fill="none" xmlns="http://www.w3.org/2000/svg">
<g id="majesticons:key">
<path id="Vector" fill-rule="evenodd" clip-rule="evenodd" d="M29.5631 11.0835C29.5631 15.7182 25.6719 19.4755 20.8731 19.4755C19.9986 19.4755 18.0049 19.2809 17.0355 18.4995L15.8227 19.6702C15.1091 20.3595 15.3016 20.5622 15.6192 20.8955C15.7512 21.0355 15.9052 21.1969 16.0249 21.4275C16.0249 21.4275 17.0355 22.7929 16.0249 24.1595C15.4185 24.9395 13.7204 26.0315 11.7816 24.1595L11.3774 24.5489C11.3774 24.5489 12.5887 25.9155 11.5795 27.2822C10.9731 28.0622 9.35611 28.8422 7.94124 27.4769L6.52774 28.8422C5.55699 29.7795 4.37174 29.2329 3.90149 28.8422L2.68736 27.6715C1.55574 26.5782 2.21574 25.3942 2.68736 24.9382L13.1951 14.7915C13.1951 14.7915 12.1845 13.2315 12.1845 11.0849C12.1845 6.4502 16.0757 2.69287 20.8745 2.69287C25.6732 2.69287 29.5631 6.4502 29.5631 11.0835Z" fill="#E6E6E6"/>
<path id="Vector_2" d="M23.9047 11.0847C23.9029 11.8625 23.5827 12.6077 23.0144 13.1565C22.4461 13.7053 21.6763 14.0128 20.8742 14.0114C20.0722 14.0128 19.3024 13.7053 18.7341 13.1565C18.1658 12.6077 17.8456 11.8625 17.8438 11.0847C17.8445 10.6995 17.9234 10.3182 18.0761 9.96261C18.2288 9.60699 18.4522 9.28401 18.7336 9.01212C19.015 8.74023 19.3489 8.52475 19.7162 8.37799C20.0835 8.23122 20.477 8.15604 20.8742 8.15674C21.2715 8.15604 21.665 8.23122 22.0323 8.37799C22.3996 8.52475 22.7335 8.74023 23.0149 9.01212C23.2963 9.28401 23.5197 9.60699 23.6724 9.96261C23.8251 10.3182 23.904 10.6995 23.9047 11.0847Z" fill="#FE9C0F"/>
</g>
</svg>
