<svg width="91" height="44" viewBox="0 0 91 44" fill="none" xmlns="http://www.w3.org/2000/svg">
<g clip-path="url(#clip0_631_408)">
<path d="M30.3452 20.9613L30.3451 20.9611C29.5765 19.235 28.4591 17.6857 27.0628 16.4101L27.0626 16.41L25.8942 15.3403C25.8939 15.34 25.8937 15.3398 25.8934 15.3395C25.8807 15.3285 25.8655 15.3206 25.8491 15.3166C25.8323 15.3125 25.8147 15.3126 25.7979 15.3168C25.7812 15.3211 25.7657 15.3293 25.753 15.3409C25.7405 15.3522 25.7309 15.3664 25.7251 15.3822C25.725 15.3824 25.7249 15.3827 25.7248 15.3829L25.2027 16.8776C24.8649 17.8512 24.2473 18.8353 23.3841 19.7945L23.3813 19.7976L23.3812 19.7976C23.2767 19.9093 23.1543 19.9396 23.0754 19.9467L23.0555 19.7274L23.0754 19.9467C23.0305 19.9508 22.9744 19.9487 22.9139 19.9314C22.8542 19.9144 22.7922 19.883 22.7358 19.8315C22.6261 19.7357 22.5747 19.5968 22.5822 19.4623L22.5823 19.461C22.7279 17.0982 22.0205 14.4139 20.4477 11.4703L20.4475 11.47C19.1542 9.03954 17.3597 7.14752 15.1194 5.82843L13.4582 4.85317L13.4576 4.85282C13.4495 4.848 13.4418 4.84482 13.4346 4.84276C13.4071 4.8349 13.374 4.84069 13.3462 4.86215C13.3199 4.88241 13.3052 4.9113 13.3069 4.94577L13.3069 4.94617L13.3953 6.87281L13.3953 6.87283C13.4566 8.21103 13.3019 9.40606 12.9269 10.4079L30.3452 20.9613ZM30.3452 20.9613C31.133 22.7271 31.5288 24.5991 31.5288 26.5271L31.5288 26.5275C31.5326 28.3738 31.1594 30.2015 30.4321 31.8991L30.432 31.8993C29.7311 33.5387 28.7256 35.0159 27.4424 36.2803L27.4419 36.2808C26.1709 37.5423 24.6659 38.5446 23.0107 39.232L23.0106 39.232C21.2916 39.9472 19.4698 40.3108 17.5877 40.3107C16.26 40.3107 14.9625 40.1297 13.7103 39.7708C13.1872 39.6209 12.6718 39.4398 12.1653 39.2279L12.165 39.2278M30.3452 20.9613L12.165 39.2278M10.9998 13.7419L10.9997 13.742C10.4237 14.441 9.77078 15.0731 9.05333 15.6267L9.05283 15.627C7.38279 16.9079 6.02483 18.549 5.08059 20.4275C4.13905 22.322 3.64858 24.4077 3.64735 26.5223L10.9998 13.7419ZM10.9998 13.7419C11.8277 12.736 12.4757 11.6151 12.9269 10.408L10.9998 13.7419ZM12.165 39.2278C10.5058 38.5363 9.01683 37.5407 7.73317 36.2757C6.46237 35.0216 5.44718 33.5337 4.74373 31.8943M12.165 39.2278L4.74373 31.8943M4.74373 31.8943C4.01544 30.192 3.64732 28.3873 3.64735 26.5224L4.74373 31.8943Z" fill="#25282B" stroke="#25282B" stroke-width="0.440402"/>
<path d="M3.20708 26.23L0.873478 25.5623C0.898777 23.5653 1.36019 21.5979 2.22548 19.7972L4.56807 20.4674C3.71301 22.2714 3.24926 24.2351 3.20708 26.23Z" fill="#25282B" stroke="#25282B" stroke-width="0.440402" stroke-linejoin="round"/>
<path d="M4.7597 20.0668L2.42003 19.3974C3.34055 17.65 4.6231 16.1171 6.18317 14.9009L8.43532 15.5453C6.91452 16.7859 5.66335 18.3245 4.7597 20.0668Z" fill="#25282B" stroke="#25282B" stroke-width="0.440402" stroke-linejoin="round"/>
<path d="M1.92636 31.0056C1.26246 29.4209 0.909419 27.7486 0.87362 26.0224L3.20308 26.6889C3.22257 28.4007 3.54381 30.0636 4.16107 31.645L1.92636 31.0056Z" fill="#25282B" stroke="#25282B" stroke-width="0.440402" stroke-linejoin="round"/>
<path d="M8.87916 15.2086L6.62464 14.5635C7.17393 14.1077 7.68187 13.6042 8.14246 13.0588L10.4484 13.7186C9.97283 14.2626 9.44752 14.7614 8.87916 15.2086Z" fill="#25282B" stroke="#25282B" stroke-width="0.440402" stroke-linejoin="round"/>
<mask id="path-6-inside-1_631_408" fill="white">
<path d="M10.3148 4.1628C10.3041 3.93814 10.522 3.78002 10.7231 3.8376L13.4949 4.63068C13.2939 4.57319 13.0761 4.7313 13.0868 4.95591L10.3148 4.1628Z"/>
</mask>
<path d="M10.3148 4.1628C10.3041 3.93814 10.522 3.78002 10.7231 3.8376L13.4949 4.63068C13.2939 4.57319 13.0761 4.7313 13.0868 4.95591L10.3148 4.1628Z" fill="#25282B"/>
<path d="M13.4343 4.84237L13.4344 4.8424L13.5557 4.41903L13.5556 4.419L13.4343 4.84237ZM10.7231 3.8376L10.6019 4.26099L10.602 4.26101L10.7231 3.8376ZM10.3148 4.1628L9.87492 4.18378C9.88392 4.37239 10.0121 4.53427 10.1937 4.58621L10.3148 4.1628ZM13.0868 4.95591L12.9656 5.37932C13.1021 5.41836 13.249 5.38925 13.3602 5.30114C13.4715 5.21302 13.5334 5.07669 13.5267 4.93493L13.0868 4.95591ZM13.4949 4.63068L13.3739 5.05412C13.6077 5.12098 13.8515 4.98563 13.9184 4.75179C13.9852 4.51796 13.8499 4.27417 13.6161 4.20727L13.4949 4.63068ZM10.8443 3.41421C10.3655 3.27712 9.84925 3.6455 9.87492 4.18378L10.7547 4.14181C10.7568 4.18519 10.7344 4.2231 10.7086 4.24299C10.6859 4.2605 10.6475 4.27405 10.6019 4.26099L10.8443 3.41421ZM10.1937 4.58621L12.9656 5.37932L13.2079 4.5325L10.436 3.73939L10.1937 4.58621ZM13.5267 4.93493C13.5287 4.9783 13.5064 5.0162 13.4806 5.0361C13.4579 5.0536 13.4195 5.06715 13.3739 5.05412L13.616 4.20725C13.1373 4.07037 12.6212 4.43871 12.6469 4.97689L13.5267 4.93493ZM13.6161 4.20727L10.8442 3.41419L10.602 4.26101L13.3738 5.05409L13.6161 4.20727Z" fill="#25282B" mask="url(#path-6-inside-1_631_408)"/>
<path d="M12.9408 6.5866L10.6156 5.92131L10.5485 4.45884L12.8737 5.12413L12.9408 6.5866Z" fill="#25282B" stroke="#25282B" stroke-width="0.440402" stroke-linejoin="round"/>
<mask id="path-9-inside-2_631_408" fill="white">
<path d="M10.7188 3.83667C10.744 3.84391 10.769 3.85455 10.7932 3.8689L13.5652 4.66279C13.5409 4.64844 13.516 4.6378 13.4907 4.63056L10.7188 3.83667Z"/>
</mask>
<path d="M10.7188 3.83667C10.744 3.84391 10.769 3.85455 10.7932 3.8689L13.5652 4.66279C13.5409 4.64844 13.516 4.6378 13.4907 4.63056L10.7188 3.83667Z" fill="#25282B"/>
<path d="M10.7932 3.8689L10.5689 4.2479C10.6012 4.26703 10.6359 4.28194 10.672 4.29228L10.7932 3.8689ZM10.7188 3.83667L10.84 3.41329C10.6062 3.34633 10.3624 3.48157 10.2954 3.71537C10.2284 3.94918 10.3636 4.19302 10.5974 4.26003L10.7188 3.83667ZM13.4907 4.63056L13.612 4.2072L13.612 4.20718L13.4907 4.63056ZM13.5652 4.66279L13.4439 5.08617C13.6569 5.14717 13.882 5.04046 13.9697 4.837C14.0573 4.63353 13.9801 4.39663 13.7895 4.2838L13.5652 4.66279ZM11.0176 3.48991C10.9611 3.4565 10.9015 3.43092 10.8401 3.41331L10.5974 4.26003C10.5865 4.2569 10.5769 4.25261 10.5689 4.2479L11.0176 3.48991ZM10.5975 4.26005L13.3694 5.05394L13.612 4.20718L10.84 3.41329L10.5975 4.26005ZM13.3694 5.05392C13.3584 5.05079 13.3488 5.0465 13.3409 5.04179L13.7895 4.2838C13.733 4.25038 13.6735 4.22481 13.612 4.2072L13.3694 5.05392ZM13.6864 4.23941L10.9145 3.44552L10.672 4.29228L13.4439 5.08617L13.6864 4.23941Z" fill="#25282B" mask="url(#path-9-inside-2_631_408)"/>
<path d="M10.7571 13.3493L8.4429 12.6872C9.12977 11.8035 9.68192 10.8362 10.0886 9.80385L12.435 10.4752C12.0238 11.5077 11.4608 12.4723 10.7571 13.3493Z" fill="#25282B" stroke="#25282B" stroke-width="0.440402" stroke-linejoin="round"/>
<path d="M12.5711 10.0625L10.2229 9.39062C10.514 8.51538 10.6463 7.50327 10.6224 6.38502L12.9503 7.05109C12.9879 8.19389 12.8586 9.20673 12.5711 10.0625Z" fill="#25282B" stroke="#25282B" stroke-width="0.440402" stroke-linejoin="round"/>
<path d="M13.613 4.94884L12.5379 4.64125L12.3986 4.55942L13.4736 4.86701L13.613 4.94884Z" fill="#25282B" stroke="#25282B" stroke-width="0.440402" stroke-linejoin="round"/>
<path d="M4.38084 32.1632C4.99536 33.5667 5.83208 34.8607 6.85756 35.9962L4.92164 35.4423C3.78065 34.3071 2.84795 32.9826 2.16466 31.5291L4.38084 32.1632Z" fill="#25282B" stroke="#25282B" stroke-width="0.440402" stroke-linejoin="round"/>
<path d="M18.0121 10.387C16.9283 8.37762 15.505 6.72466 13.7723 5.45226L15.1355 5.84228C17.221 7.07586 18.919 8.80727 20.1844 11.0086L18.0121 10.387Z" fill="#25282B" stroke="#25282B" stroke-width="0.440402" stroke-linejoin="round"/>
<path d="M7.47596 36.6276C8.24607 37.3808 9.08776 38.0408 9.99377 38.6004L9.39293 38.4285C8.02104 37.8553 6.76564 37.074 5.64666 36.1042L7.47596 36.6276Z" fill="#25282B" stroke="#25282B" stroke-width="0.440402" stroke-linejoin="round"/>
<mask id="path-17-inside-3_631_408" fill="white">
<path d="M10.876 39.1892C10.3446 39.0368 9.82106 38.8529 9.30664 38.6377L12.0786 39.4308C12.593 39.6461 13.1165 39.8299 13.648 39.9823L10.876 39.1892Z"/>
</mask>
<path d="M10.876 39.1892C10.3446 39.0368 9.82106 38.8529 9.30664 38.6377L12.0786 39.4308C12.593 39.6461 13.1165 39.8299 13.648 39.9823L10.876 39.1892Z" fill="#25282B"/>
<path d="M9.30664 38.6377L9.42779 38.2143C9.20361 38.1501 8.96829 38.2719 8.89108 38.4919C8.81387 38.7119 8.92154 38.954 9.13664 39.044L9.30664 38.6377ZM10.876 39.1892L10.7547 39.6125L10.7549 39.6126L10.876 39.1892ZM13.648 39.9823L13.5268 40.4057C13.7606 40.4726 14.0044 40.3373 14.0713 40.1035C14.1383 39.8697 14.0031 39.6259 13.7693 39.5589L13.648 39.9823ZM12.0786 39.4308L12.2486 39.0245C12.2327 39.0179 12.2163 39.0121 12.1997 39.0074L12.0786 39.4308ZM9.13664 39.044C9.66684 39.2658 10.2066 39.4554 10.7547 39.6125L10.9974 38.7658C10.4825 38.6182 9.97528 38.4401 9.47664 38.2314L9.13664 39.044ZM10.7549 39.6126L13.5268 40.4057L13.7691 39.5589L10.9972 38.7657L10.7549 39.6126ZM13.7693 39.5589C13.2545 39.4114 12.7472 39.2332 12.2486 39.0245L11.9086 39.8371C12.4388 40.0589 12.9785 40.2485 13.5266 40.4056L13.7693 39.5589ZM12.1997 39.0074L9.42779 38.2143L9.18549 39.0611L11.9574 39.8542L12.1997 39.0074Z" fill="#25282B" mask="url(#path-17-inside-3_631_408)"/>
<path d="M20.2447 18.5185C20.3462 16.2207 19.6842 13.6705 18.2878 10.9267L20.4769 11.5531C21.9591 14.3511 22.6568 16.9136 22.5808 19.1869L20.2447 18.5185Z" fill="#25282B" stroke="#25282B" stroke-width="0.440402" stroke-linejoin="round"/>
<path d="M15.475 40.1511C15.1213 40.0977 14.7705 40.031 14.4229 39.9508C14.5463 39.9541 14.6699 39.9559 14.7938 39.9561L15.475 40.1511Z" fill="#25282B" stroke="#25282B" stroke-width="0.440402" stroke-linejoin="round"/>
<mask id="path-21-inside-4_631_408" fill="white">
<path d="M20.0277 18.6794C20.0237 18.7518 20.0519 18.8241 20.1082 18.8723L22.8801 19.6662C22.8238 19.618 22.7956 19.5457 22.7997 19.4733L20.0277 18.6794Z"/>
</mask>
<path d="M20.0277 18.6794C20.0237 18.7518 20.0519 18.8241 20.1082 18.8723L22.8801 19.6662C22.8238 19.618 22.7956 19.5457 22.7997 19.4733L20.0277 18.6794Z" fill="#25282B"/>
<path d="M20.1082 18.8723L19.8218 19.2069C19.8698 19.248 19.9261 19.2783 19.9869 19.2957L20.1082 18.8723ZM20.0277 18.6794L20.149 18.2561C20.0202 18.2192 19.8817 18.2429 19.7725 18.3205C19.6633 18.3982 19.5954 18.5212 19.588 18.655L20.0277 18.6794ZM22.7997 19.4733L23.2394 19.4978C23.2508 19.2925 23.1186 19.1066 22.9209 19.05L22.7997 19.4733ZM22.8801 19.6662L22.7589 20.0896C22.958 20.1466 23.1699 20.0572 23.268 19.8748C23.3661 19.6924 23.3238 19.4663 23.1665 19.3316L22.8801 19.6662ZM20.3946 18.5377C20.4498 18.585 20.4705 18.6491 20.4674 18.7039L19.588 18.655C19.5769 18.8545 19.6539 19.0632 19.8218 19.2069L20.3946 18.5377ZM19.9065 19.1028L22.6784 19.8967L22.9209 19.05L20.149 18.2561L19.9065 19.1028ZM22.3599 19.4489C22.3488 19.6483 22.4259 19.857 22.5937 20.0007L23.1665 19.3316C23.2217 19.3789 23.2424 19.443 23.2394 19.4978L22.3599 19.4489ZM23.0014 19.2428L20.2294 18.4489L19.9869 19.2957L22.7589 20.0896L23.0014 19.2428Z" fill="#25282B" mask="url(#path-21-inside-4_631_408)"/>
<mask id="path-23-inside-5_631_408" fill="white">
<path d="M20.1035 18.8743C20.1335 18.9022 20.1654 18.9182 20.1954 18.9268L22.9673 19.7207C22.9373 19.7121 22.9054 19.6961 22.8755 19.6682L20.1035 18.8743Z"/>
</mask>
<path d="M20.1035 18.8743C20.1335 18.9022 20.1654 18.9182 20.1954 18.9268L22.9673 19.7207C22.9373 19.7121 22.9054 19.6961 22.8755 19.6682L20.1035 18.8743Z" fill="#25282B"/>
<path d="M22.9068 19.9324L22.9069 19.9324L23.0279 19.509L23.0278 19.509L22.9068 19.9324ZM20.1954 18.9268L20.3167 18.5034L20.3166 18.5034L20.1954 18.9268ZM20.1035 18.8743L20.2248 18.4509C20.029 18.3948 19.8204 18.4803 19.7202 18.6575C19.6199 18.8347 19.6543 19.0576 19.8032 19.1964L20.1035 18.8743ZM22.8755 19.6682L23.1758 19.346C23.1249 19.2986 23.0636 19.2639 22.9967 19.2448L22.8755 19.6682ZM22.9673 19.7207L22.846 20.1441C23.0798 20.211 23.3236 20.0758 23.3906 19.842C23.4576 19.6082 23.3224 19.3644 23.0886 19.2973L22.9673 19.7207ZM20.3166 18.5034C20.3483 18.5125 20.3791 18.5291 20.4038 18.5521L19.8032 19.1964C19.8878 19.2753 19.9826 19.324 20.0743 19.3502L20.3166 18.5034ZM19.9823 19.2976L22.7542 20.0915L22.9967 19.2448L20.2248 18.4509L19.9823 19.2976ZM22.5752 19.9903C22.6597 20.0691 22.7543 20.1178 22.8459 20.144L23.0886 19.2973C23.1203 19.3064 23.1511 19.323 23.1758 19.346L22.5752 19.9903ZM23.0885 19.2973L20.3167 18.5034L20.0742 19.3502L22.846 20.1441L23.0885 19.2973Z" fill="#25282B" mask="url(#path-23-inside-5_631_408)"/>
<mask id="path-25-inside-6_631_408" fill="white">
<path d="M20.1992 18.926C20.2296 18.9347 20.258 18.9358 20.2803 18.9337L23.0522 19.7276C23.03 19.7296 23.0016 19.7286 22.9712 19.7199L20.1992 18.926Z"/>
</mask>
<path d="M20.1992 18.926C20.2296 18.9347 20.258 18.9358 20.2803 18.9337L23.0522 19.7276C23.03 19.7296 23.0016 19.7286 22.9712 19.7199L20.1992 18.926Z" fill="#25282B"/>
<path d="M20.2803 18.9337L20.4016 18.5104C20.3493 18.4954 20.2947 18.4902 20.2405 18.4951L20.2803 18.9337ZM20.1992 18.926L20.3204 18.5026C20.0865 18.4357 19.8428 18.571 19.7758 18.8048C19.7089 19.0386 19.8442 19.2824 20.078 19.3494L20.1992 18.926ZM22.9712 19.7199L22.8499 20.1433L22.85 20.1433L22.9712 19.7199ZM23.0522 19.7276L23.0921 20.1662C23.3032 20.1471 23.4707 19.9801 23.4907 19.7691C23.5106 19.558 23.3773 19.3626 23.1735 19.3042L23.0522 19.7276ZM20.2405 18.4951C20.2635 18.4931 20.2906 18.4941 20.3204 18.5026L20.0781 19.3494C20.1687 19.3754 20.2526 19.3785 20.3201 19.3723L20.2405 18.4951ZM20.078 19.3494L22.8499 20.1433L23.0924 19.2965L20.3205 18.5026L20.078 19.3494ZM22.85 20.1433C22.9406 20.1692 23.0245 20.1724 23.0921 20.1662L23.0124 19.289C23.0354 19.2869 23.0625 19.288 23.0923 19.2965L22.85 20.1433ZM23.1735 19.3042L20.4016 18.5104L20.159 19.3571L22.931 20.151L23.1735 19.3042Z" fill="#25282B" mask="url(#path-25-inside-6_631_408)"/>
<mask id="path-27-inside-7_631_408" fill="white">
<path d="M20.2832 18.9346C20.3275 18.9306 20.3918 18.9145 20.4481 18.8543L23.2201 19.6481C23.1638 19.7084 23.0994 19.7245 23.0551 19.7285L20.2832 18.9346Z"/>
</mask>
<path d="M20.2832 18.9346C20.3275 18.9306 20.3918 18.9145 20.4481 18.8543L23.2201 19.6481C23.1638 19.7084 23.0994 19.7245 23.0551 19.7285L20.2832 18.9346Z" fill="#25282B"/>
<path d="M20.4481 18.8543L20.5694 18.4309C20.4104 18.3853 20.2393 18.4327 20.1264 18.5535L20.4481 18.8543ZM20.2832 18.9346L20.2434 18.496C20.0322 18.5152 19.8647 18.6821 19.8448 18.8932C19.8248 19.1043 19.9581 19.2996 20.1619 19.358L20.2832 18.9346ZM23.0551 19.7285L22.9339 20.1519C22.9862 20.1668 23.0408 20.172 23.095 20.1671L23.0551 19.7285ZM23.2201 19.6481L23.5418 19.9489C23.6465 19.8368 23.6854 19.6784 23.6445 19.5306C23.6036 19.3828 23.4888 19.267 23.3413 19.2248L23.2201 19.6481ZM20.1264 18.5535C20.1436 18.5351 20.1661 18.5198 20.1904 18.5095C20.2132 18.5 20.2323 18.497 20.2434 18.496L20.323 19.3732C20.4368 19.3629 20.6172 19.3184 20.7699 19.155L20.1264 18.5535ZM20.1619 19.358L22.9339 20.1519L23.1764 19.3051L20.4045 18.5112L20.1619 19.358ZM23.095 20.1671C23.2087 20.1568 23.3891 20.1123 23.5418 19.9489L22.8983 19.3474C22.9156 19.329 22.9381 19.3137 22.9624 19.3034C22.9851 19.2939 23.0042 19.2909 23.0153 19.2899L23.095 20.1671ZM23.3413 19.2248L20.5694 18.4309L20.3269 19.2776L23.0988 20.0715L23.3413 19.2248Z" fill="#25282B" mask="url(#path-27-inside-7_631_408)"/>
<path d="M23.1447 19.3959L20.8394 18.7363C21.5279 17.9254 22.0401 17.0993 22.3558 16.2788L24.7025 16.9503C24.3875 17.7532 23.865 18.5768 23.1447 19.3959Z" fill="#25282B" stroke="#25282B" stroke-width="0.440402" stroke-linejoin="round"/>
<path d="M24.8455 16.5363L22.4976 15.8645L22.8752 14.7838L25.223 15.4556L24.8455 16.5363Z" fill="#25282B" stroke="#25282B" stroke-width="0.440402" stroke-linejoin="round"/>
<mask id="path-31-inside-8_631_408" fill="white">
<path d="M22.7402 14.515C22.7582 14.4649 22.7883 14.42 22.8277 14.3843L25.5997 15.1782C25.5602 15.2139 25.5302 15.2588 25.5122 15.3089L22.7402 14.515Z"/>
</mask>
<path d="M22.7402 14.515C22.7582 14.4649 22.7883 14.42 22.8277 14.3843L25.5997 15.1782C25.5602 15.2139 25.5302 15.2588 25.5122 15.3089L22.7402 14.515Z" fill="#25282B"/>
<path d="M22.8277 14.3843L22.949 13.9609C22.8025 13.919 22.6448 13.9557 22.5319 14.058L22.8277 14.3843ZM22.7402 14.515L22.3258 14.3659C22.2846 14.4806 22.2927 14.6072 22.3482 14.7157C22.4038 14.8242 22.5018 14.9048 22.619 14.9384L22.7402 14.515ZM25.5122 15.3089L25.3909 15.7323C25.6138 15.7961 25.8481 15.6762 25.9266 15.458L25.5122 15.3089ZM25.5997 15.1782L25.8955 15.5044C26.0139 15.3971 26.0649 15.234 26.0286 15.0783C25.9924 14.9226 25.8746 14.7988 25.7209 14.7548L25.5997 15.1782ZM22.5319 14.058C22.4391 14.1422 22.3683 14.2479 22.3258 14.3659L23.1546 14.6641C23.1482 14.682 23.1375 14.6979 23.1236 14.7105L22.5319 14.058ZM22.619 14.9384L25.3909 15.7323L25.6334 14.8855L22.8615 14.0916L22.619 14.9384ZM25.9266 15.458C25.9201 15.4758 25.9095 15.4918 25.8955 15.5044L25.3039 14.8519C25.211 14.9361 25.1402 15.0418 25.0978 15.1598L25.9266 15.458ZM25.7209 14.7548L22.949 13.9609L22.7065 14.8077L25.4784 15.6015L25.7209 14.7548Z" fill="#25282B" mask="url(#path-31-inside-8_631_408)"/>
<mask id="path-33-inside-9_631_408" fill="white">
<path d="M22.832 14.3828C22.8715 14.347 22.9191 14.3214 22.9707 14.3084L25.7427 15.1022C25.691 15.1153 25.6434 15.1409 25.604 15.1766L22.832 14.3828Z"/>
</mask>
<path d="M22.832 14.3828C22.8715 14.347 22.9191 14.3214 22.9707 14.3084L25.7427 15.1022C25.691 15.1153 25.6434 15.1409 25.604 15.1766L22.832 14.3828Z" fill="#25282B"/>
<path d="M22.9707 14.3084L23.092 13.885C23.0172 13.8635 22.938 13.8623 22.8625 13.8815L22.9707 14.3084ZM22.832 14.3828L22.5362 14.0565C22.4178 14.1639 22.3669 14.327 22.4031 14.4826C22.4394 14.6383 22.5571 14.7621 22.7108 14.8061L22.832 14.3828ZM25.604 15.1766L25.4827 15.6C25.6292 15.642 25.7869 15.6052 25.8998 15.5029L25.604 15.1766ZM25.7427 15.1022L25.8509 15.5291C26.0438 15.4802 26.18 15.308 26.183 15.109C26.1861 14.91 26.0553 14.7337 25.8639 14.6789L25.7427 15.1022ZM22.8625 13.8815C22.7411 13.9122 22.629 13.9723 22.5362 14.0565L23.1279 14.709C23.1139 14.7217 23.0971 14.7307 23.0789 14.7353L22.8625 13.8815ZM22.7108 14.8061L25.4827 15.6L25.7252 14.7533L22.9533 13.9594L22.7108 14.8061ZM25.8998 15.5029C25.8859 15.5155 25.8691 15.5245 25.8509 15.5291L25.6345 14.6753C25.513 14.7061 25.401 14.7662 25.3081 14.8504L25.8998 15.5029ZM25.8639 14.6789L23.092 13.885L22.8495 14.7317L25.6214 15.5256L25.8639 14.6789Z" fill="#25282B" mask="url(#path-33-inside-9_631_408)"/>
<mask id="path-35-inside-10_631_408" fill="white">
<path d="M22.9629 14.3091C23.0145 14.296 23.0686 14.2957 23.1203 14.3084L25.8923 15.1023C25.8405 15.0896 25.7865 15.0899 25.7348 15.103L22.9629 14.3091Z"/>
</mask>
<path d="M22.9629 14.3091C23.0145 14.296 23.0686 14.2957 23.1203 14.3084L25.8923 15.1023C25.8405 15.0896 25.7865 15.0899 25.7348 15.103L22.9629 14.3091Z" fill="#25282B"/>
<path d="M23.1203 14.3084L23.2416 13.885C23.2361 13.8834 23.2305 13.882 23.2249 13.8806L23.1203 14.3084ZM22.9629 14.3091L22.8547 13.8822C22.6617 13.9311 22.5256 14.1033 22.5225 14.3023C22.5195 14.5013 22.6503 14.6776 22.8416 14.7324L22.9629 14.3091ZM25.7348 15.103L25.6136 15.5263C25.6884 15.5478 25.7676 15.549 25.8431 15.5299L25.7348 15.103ZM25.8923 15.1023L25.7877 15.5301C26.0207 15.587 26.2564 15.4471 26.318 15.2152C26.3795 14.9834 26.2441 14.7449 26.0135 14.6789L25.8923 15.1023ZM23.2249 13.8806C23.1032 13.8508 22.9761 13.8514 22.8547 13.8822L23.0711 14.736C23.053 14.7406 23.034 14.7406 23.0158 14.7362L23.2249 13.8806ZM22.8416 14.7324L25.6136 15.5263L25.8561 14.6796L23.0841 13.8857L22.8416 14.7324ZM25.8431 15.5299C25.8249 15.5345 25.8059 15.5345 25.7877 15.5301L25.9969 14.6745C25.8752 14.6447 25.748 14.6453 25.6266 14.6761L25.8431 15.5299ZM26.0135 14.6789L23.2416 13.885L22.9991 14.7318L25.771 15.5257L26.0135 14.6789Z" fill="#25282B" mask="url(#path-35-inside-10_631_408)"/>
<mask id="path-37-inside-11_631_408" fill="white">
<path d="M23.2604 14.3825C23.227 14.3528 23.188 14.3303 23.1456 14.3164L23.1211 14.3093C23.1294 14.3114 23.1376 14.3137 23.1456 14.3164L25.893 15.1032C25.9448 15.1159 25.9926 15.141 26.0324 15.1764L23.2604 14.3825Z"/>
</mask>
<path d="M23.2604 14.3825C23.227 14.3528 23.188 14.3303 23.1456 14.3164L23.1211 14.3093C23.1294 14.3114 23.1376 14.3137 23.1456 14.3164L25.893 15.1032C25.9448 15.1159 25.9926 15.141 26.0324 15.1764L23.2604 14.3825Z" fill="#25282B"/>
<path d="M23.2604 14.3825L22.9674 14.7113C23.0168 14.7554 23.0755 14.7877 23.1392 14.8059L23.2604 14.3825ZM23.1211 14.3093L23.2257 13.8815C22.9927 13.8246 22.7569 13.9645 22.6954 14.1964C22.6339 14.4282 22.7692 14.6667 22.9998 14.7327L23.1211 14.3093ZM25.893 15.1032L25.7718 15.5266C25.7773 15.5282 25.7829 15.5297 25.7885 15.531L25.893 15.1032ZM26.0324 15.1764L25.9111 15.5998C26.1086 15.6564 26.319 15.5689 26.4181 15.3889C26.5172 15.209 26.4788 14.9844 26.3254 14.8477L26.0324 15.1764ZM23.5535 14.0538C23.4749 13.9838 23.3829 13.9308 23.2834 13.8981L23.0079 14.7347C22.993 14.7298 22.9792 14.7218 22.9674 14.7113L23.5535 14.0538ZM23.2834 13.8981C23.2644 13.8918 23.2452 13.8863 23.2257 13.8815L23.0165 14.7371C23.0136 14.7364 23.0107 14.7356 23.0079 14.7347L23.2834 13.8981ZM22.9998 14.7327L23.0244 14.7397L23.2669 13.893L23.2424 13.8859L22.9998 14.7327ZM23.0244 14.7397L25.7718 15.5266L26.0143 14.6798L23.2669 13.893L23.0244 14.7397ZM25.7885 15.531C25.7703 15.5266 25.7534 15.5177 25.7393 15.5052L26.3254 14.8477C26.2319 14.7643 26.1193 14.7052 25.9976 14.6754L25.7885 15.531ZM26.1536 14.7531L23.3817 13.9592L23.1392 14.8059L25.9111 15.5998L26.1536 14.7531Z" fill="#25282B" mask="url(#path-37-inside-11_631_408)"/>
<path d="M26.3719 15.778L24.5487 15.2564L24.1059 14.851L25.9291 15.3726L26.3719 15.778Z" fill="#25282B" stroke="#25282B" stroke-width="0.440402" stroke-linejoin="round"/>
<path d="M22.3994 39.4656C20.8692 40.0218 19.2636 40.3056 17.6113 40.309L16.163 39.8947C17.5985 39.7629 18.9938 39.4208 20.3292 38.8733L22.3994 39.4656Z" fill="#25282B" stroke="#25282B" stroke-width="0.440402" stroke-linejoin="round"/>
<path d="M27.9274 19.8938C27.2573 18.4179 26.3393 17.0695 25.2148 15.9059L27.095 16.4439C28.3559 17.6045 29.3872 18.9893 30.1369 20.526L27.9274 19.8938Z" fill="#25282B" stroke="#25282B" stroke-width="0.440402" stroke-linejoin="round"/>
<path d="M27.1567 36.5438C25.9637 37.6645 24.5795 38.565 23.0687 39.2023L20.9566 38.598C22.4048 37.9221 23.7298 37.0073 24.8751 35.8909L27.1567 36.5438Z" fill="#25282B" stroke="#25282B" stroke-width="0.440402" stroke-linejoin="round"/>
<path d="M29.1778 25.5673C29.1575 23.7914 28.8105 22.0617 28.1399 20.4171L30.3681 21.0546C31.0892 22.7031 31.4699 24.4431 31.5073 26.2338L29.1778 25.5673Z" fill="#25282B" stroke="#25282B" stroke-width="0.440402" stroke-linejoin="round"/>
<path d="M30.3229 32.1277C29.645 33.6373 28.705 35.0048 27.5246 36.1893L25.2342 35.534C26.3877 34.3369 27.3095 32.965 27.9786 31.457L30.3229 32.1277Z" fill="#25282B" stroke="#25282B" stroke-width="0.440402" stroke-linejoin="round"/>
<path d="M30.5038 31.7196L28.1579 31.0484C28.8088 29.4512 29.1591 27.7481 29.1915 26.0245L31.5248 26.6921C31.5073 28.4175 31.1608 30.1237 30.5038 31.7196Z" fill="#25282B" stroke="#25282B" stroke-width="0.440402" stroke-linejoin="round"/>
<path d="M27.5523 20.1744L27.5523 20.1742C26.7847 18.4505 25.6689 16.9033 24.2745 15.6295L24.2744 15.6294L23.1061 14.5598C23.1059 14.5596 23.1056 14.5593 23.1053 14.5591C23.095 14.5501 23.0826 14.5437 23.0692 14.5404C23.0554 14.5371 23.041 14.5371 23.0272 14.5406C23.0135 14.5441 23.0008 14.5509 22.9904 14.5603C22.9802 14.5696 22.9724 14.5812 22.9676 14.594C22.9676 14.5942 22.9675 14.5944 22.9674 14.5947L22.4453 16.0892C22.1065 17.0657 21.4874 18.052 20.6229 19.0125L20.6198 19.016L20.6198 19.0159C20.5111 19.1322 20.3837 19.1636 20.3017 19.171C20.2106 19.1793 20.07 19.1626 19.9477 19.051C19.8334 18.9511 19.7799 18.8064 19.7877 18.6665L19.7878 18.6651C19.9332 16.3069 19.2273 13.6262 17.6555 10.6846L17.6553 10.6843C16.3636 8.25678 14.5715 6.36741 12.3344 5.05019L10.6731 4.07494L10.6725 4.07456C10.6474 4.05975 10.6185 4.05998 10.5911 4.07664C10.5636 4.09334 10.5491 4.11969 10.5505 4.15019L10.5506 4.15061L10.639 6.07725L10.639 6.07728C10.7004 7.41741 10.5455 8.61516 10.1694 9.61998C9.71746 10.8291 9.06841 11.9518 8.23915 12.9594L8.23905 12.9595C7.66209 13.6595 7.00817 14.2927 6.28959 14.8471L6.28905 14.8475C4.6213 16.1266 3.26521 17.7654 2.32227 19.6413C1.38205 21.5332 0.892264 23.616 0.891041 25.7276L27.5523 20.1744ZM27.5523 20.1744C28.3391 21.9377 28.7344 23.8071 28.7343 25.7324L28.7343 25.7329C28.7381 27.5765 28.3655 29.4016 27.6391 31.0969L27.6391 31.0971C26.9392 32.7342 25.935 34.2094 24.6537 35.472L24.653 35.4726C23.3839 36.7323 21.8809 37.7333 20.228 38.4197L20.2279 38.4197C18.5112 39.134 16.6919 39.497 14.8123 39.497C12.9327 39.4969 11.1136 39.1338 9.39722 38.4156L9.39691 38.4155M27.5523 20.1744L9.39691 38.4155M9.39691 38.4155C7.74007 37.725 6.25312 36.7308 4.97117 35.4675C3.70218 34.2151 2.68844 32.7294 1.98597 31.0923M9.39691 38.4155L1.98597 31.0923M1.98597 31.0923C1.25864 29.3924 0.891008 27.5902 0.891041 25.7278L1.98597 31.0923Z" fill="#FDBF1C" stroke="#25282B" stroke-width="0.478559"/>
</g>
<path d="M37.9853 26.7122V7.0303H41.589V15.2357H49.7112V7.0303H53.3149V26.7122H49.7112V18.3682H41.589V26.7122H37.9853ZM64.7123 27.1557C58.8632 27.1557 55.3149 23.247 55.3149 16.899C55.3149 10.4954 58.8632 6.58677 64.7123 6.58677C70.5892 6.58677 74.082 10.4954 74.082 16.899C74.082 23.247 70.5892 27.1557 64.7123 27.1557ZM59.085 16.899C59.085 21.3343 61.1641 24.0232 64.7123 24.0232C68.2606 24.0232 70.3674 21.3343 70.3674 16.899C70.3674 12.4082 68.2606 9.71923 64.7123 9.71923C61.1641 9.71923 59.085 12.4082 59.085 16.899ZM89.9423 7.0303V10.1628H83.9546V26.7122H80.3508V10.1628H74.3908V7.0303H89.9423Z" fill="white" fill-opacity="0.85"/>
<path d="M40.3261 32.2457C41.9572 32.2457 42.93 33.081 42.93 34.4664C42.93 35.8617 41.9572 36.7067 40.3261 36.7067H38.9013V39.2222H37.624V32.2457H40.3261ZM38.9013 35.5964H40.2671C41.1318 35.5964 41.6133 35.2132 41.6133 34.4664C41.6133 33.7393 41.1417 33.3561 40.2671 33.3561H38.9013V35.5964ZM47.0673 32.2457C48.5117 32.2457 49.5336 33.022 49.5336 34.3485C49.5336 35.2034 49.003 35.8027 48.3152 35.9993C49.0325 36.1073 49.3469 36.4709 49.4157 37.2078L49.5926 39.2222H48.3054L48.158 37.3945C48.1089 36.7853 47.7453 36.5888 46.861 36.5888H45.4264V39.2222H44.149V32.2457H47.0673ZM45.4264 35.4687H46.9297C47.7551 35.4687 48.2169 35.1051 48.2169 34.4271C48.2169 33.7393 47.7551 33.3561 46.9297 33.3561H45.4264V35.4687ZM53.7374 39.3794C51.6642 39.3794 50.4064 37.9939 50.4064 35.7438C50.4064 33.474 51.6642 32.0885 53.7374 32.0885C55.8205 32.0885 57.0586 33.474 57.0586 35.7438C57.0586 37.9939 55.8205 39.3794 53.7374 39.3794ZM51.7428 35.7438C51.7428 37.3159 52.4797 38.2691 53.7374 38.2691C54.9952 38.2691 55.7419 37.3159 55.7419 35.7438C55.7419 34.152 54.9952 33.1989 53.7374 33.1989C52.4797 33.1989 51.7428 34.152 51.7428 35.7438ZM63.0735 32.2457V33.3561H60.9511V39.2222H59.6737V33.3561H57.5611V32.2457H63.0735ZM66.8931 39.3794C64.8198 39.3794 63.5621 37.9939 63.5621 35.7438C63.5621 33.474 64.8198 32.0885 66.8931 32.0885C68.9762 32.0885 70.2142 33.474 70.2142 35.7438C70.2142 37.9939 68.9762 39.3794 66.8931 39.3794ZM64.8984 35.7438C64.8984 37.3159 65.6354 38.2691 66.8931 38.2691C68.1508 38.2691 68.8976 37.3159 68.8976 35.7438C68.8976 34.152 68.1508 33.1989 66.8931 33.1989C65.6354 33.1989 64.8984 34.152 64.8984 35.7438ZM77.325 36.7853C77.0499 38.387 76.0083 39.3794 74.3674 39.3794C72.3236 39.3794 71.0659 37.7974 71.0659 35.7438C71.0659 33.6803 72.3138 32.0885 74.3674 32.0885C75.9297 32.0885 76.9811 33.022 77.2857 34.5647L75.9494 34.6236C75.7627 33.7196 75.1829 33.1989 74.3477 33.1989C72.9918 33.1989 72.3924 34.3288 72.3924 35.7438C72.3924 37.1489 73.0016 38.2691 74.3477 38.2691C75.2223 38.2691 75.8118 37.709 75.9788 36.7166L77.325 36.7853ZM81.4497 39.3794C79.3764 39.3794 78.1187 37.9939 78.1187 35.7438C78.1187 33.474 79.3764 32.0885 81.4497 32.0885C83.5328 32.0885 84.7708 33.474 84.7708 35.7438C84.7708 37.9939 83.5328 39.3794 81.4497 39.3794ZM79.455 35.7438C79.455 37.3159 80.192 38.2691 81.4497 38.2691C82.7074 38.2691 83.4542 37.3159 83.4542 35.7438C83.4542 34.152 82.7074 33.1989 81.4497 33.1989C80.192 33.1989 79.455 34.152 79.455 35.7438ZM85.8613 39.2222V32.2457H87.1387V38.1118H90.45V39.2222H85.8613Z" fill="white" fill-opacity="0.85"/>
<defs>
<clipPath id="clip0_631_408">
<rect width="32.742" height="42.7489" fill="white" transform="translate(0.00195312 0.405273)"/>
</clipPath>
</defs>
</svg>
