<svg width="32" height="32" viewBox="0 0 32 32" fill="none" xmlns="http://www.w3.org/2000/svg">
<g id="mingcute:coin-2-fill">
<g id="Group">
<g id="Vector">
<path d="M27.6426 21.524V23.3333C27.6426 24.4187 27.1346 25.3467 26.4292 26.076C25.7319 26.7987 24.7852 27.388 23.7199 27.8547C21.5839 28.788 18.7279 29.3333 15.6426 29.3333C12.5572 29.3333 9.70124 28.7893 7.56524 27.8547C6.49991 27.388 5.55324 26.7987 4.85591 26.076C4.20924 25.4093 3.72924 24.572 3.65324 23.6013L3.64258 23.3333V21.524C4.26258 21.876 4.92524 22.188 5.63458 22.4507C8.34124 23.452 11.8812 24.0107 15.6426 24.0107C19.4039 24.0107 22.9439 23.452 25.6506 22.4507C26.1826 22.2533 26.6879 22.0293 27.1692 21.78L27.6426 21.524ZM15.6426 4C18.7279 4 21.5839 4.544 23.7199 5.47867C24.7852 5.94533 25.7319 6.53467 26.4292 7.25733C27.0759 7.924 27.5559 8.76133 27.6319 9.732L27.6426 10V10.9973C26.7572 11.6808 25.7737 12.2265 24.7252 12.616C22.3852 13.4827 19.1732 14.012 15.6426 14.012C12.1132 14.012 8.90125 13.4827 6.55991 12.616C5.65836 12.2816 4.80445 11.8307 4.01991 11.2747L3.64258 10.9973V10C3.64258 8.91467 4.15058 7.98667 4.85591 7.25733C5.55324 6.53467 6.49991 5.94533 7.56524 5.47867C9.70124 4.54533 12.5572 4 15.6426 4Z" fill="black"/>
<path d="M27.6426 21.524V23.3333C27.6426 24.4187 27.1346 25.3467 26.4292 26.076C25.7319 26.7987 24.7852 27.388 23.7199 27.8547C21.5839 28.788 18.7279 29.3333 15.6426 29.3333C12.5572 29.3333 9.70124 28.7893 7.56524 27.8547C6.49991 27.388 5.55324 26.7987 4.85591 26.076C4.20924 25.4093 3.72924 24.572 3.65324 23.6013L3.64258 23.3333V21.524C4.26258 21.876 4.92524 22.188 5.63458 22.4507C8.34124 23.452 11.8812 24.0107 15.6426 24.0107C19.4039 24.0107 22.9439 23.452 25.6506 22.4507C26.1826 22.2533 26.6879 22.0293 27.1692 21.78L27.6426 21.524ZM15.6426 4C18.7279 4 21.5839 4.544 23.7199 5.47867C24.7852 5.94533 25.7319 6.53467 26.4292 7.25733C27.0759 7.924 27.5559 8.76133 27.6319 9.732L27.6426 10V10.9973C26.7572 11.6808 25.7737 12.2265 24.7252 12.616C22.3852 13.4827 19.1732 14.012 15.6426 14.012C12.1132 14.012 8.90125 13.4827 6.55991 12.616C5.65836 12.2816 4.80445 11.8307 4.01991 11.2747L3.64258 10.9973V10C3.64258 8.91467 4.15058 7.98667 4.85591 7.25733C5.55324 6.53467 6.49991 5.94533 7.56524 5.47867C9.70124 4.54533 12.5572 4 15.6426 4Z" fill="#FDBF1C"/>
<path d="M27.6426 21.524V23.3333C27.6426 24.4187 27.1346 25.3467 26.4292 26.076C25.7319 26.7987 24.7852 27.388 23.7199 27.8547C21.5839 28.788 18.7279 29.3333 15.6426 29.3333C12.5572 29.3333 9.70124 28.7893 7.56524 27.8547C6.49991 27.388 5.55324 26.7987 4.85591 26.076C4.20924 25.4093 3.72924 24.572 3.65324 23.6013L3.64258 23.3333V21.524C4.26258 21.876 4.92524 22.188 5.63458 22.4507C8.34124 23.452 11.8812 24.0107 15.6426 24.0107C19.4039 24.0107 22.9439 23.452 25.6506 22.4507C26.1826 22.2533 26.6879 22.0293 27.1692 21.78L27.6426 21.524ZM15.6426 4C18.7279 4 21.5839 4.544 23.7199 5.47867C24.7852 5.94533 25.7319 6.53467 26.4292 7.25733C27.0759 7.924 27.5559 8.76133 27.6319 9.732L27.6426 10V10.9973C26.7572 11.6808 25.7737 12.2265 24.7252 12.616C22.3852 13.4827 19.1732 14.012 15.6426 14.012C12.1132 14.012 8.90125 13.4827 6.55991 12.616C5.65836 12.2816 4.80445 11.8307 4.01991 11.2747L3.64258 10.9973V10C3.64258 8.91467 4.15058 7.98667 4.85591 7.25733C5.55324 6.53467 6.49991 5.94533 7.56524 5.47867C9.70124 4.54533 12.5572 4 15.6426 4Z" fill="#E6E6E6"/>
</g>
<g id="Vector_2">
<path d="M5.63458 15.1173C4.92524 14.8547 4.26258 14.5427 3.64258 14.1907V18.3307C4.52795 19.0141 5.5115 19.5598 6.55991 19.9493C8.90125 20.816 12.1132 21.3453 15.6426 21.3453C19.1732 21.3453 22.3852 20.816 24.7252 19.9493C25.7737 19.5598 26.7572 19.0141 27.6426 18.3307V14.1907C27.005 14.5534 26.3388 14.8633 25.6506 15.1173C22.9439 16.1187 19.4039 16.6773 15.6426 16.6773C11.8812 16.6773 8.34124 16.1187 5.63458 15.1173Z" fill="black"/>
<path d="M5.63458 15.1173C4.92524 14.8547 4.26258 14.5427 3.64258 14.1907V18.3307C4.52795 19.0141 5.5115 19.5598 6.55991 19.9493C8.90125 20.816 12.1132 21.3453 15.6426 21.3453C19.1732 21.3453 22.3852 20.816 24.7252 19.9493C25.7737 19.5598 26.7572 19.0141 27.6426 18.3307V14.1907C27.005 14.5534 26.3388 14.8633 25.6506 15.1173C22.9439 16.1187 19.4039 16.6773 15.6426 16.6773C11.8812 16.6773 8.34124 16.1187 5.63458 15.1173Z" fill="#FDBF1C"/>
<path d="M5.63458 15.1173C4.92524 14.8547 4.26258 14.5427 3.64258 14.1907V18.3307C4.52795 19.0141 5.5115 19.5598 6.55991 19.9493C8.90125 20.816 12.1132 21.3453 15.6426 21.3453C19.1732 21.3453 22.3852 20.816 24.7252 19.9493C25.7737 19.5598 26.7572 19.0141 27.6426 18.3307V14.1907C27.005 14.5534 26.3388 14.8633 25.6506 15.1173C22.9439 16.1187 19.4039 16.6773 15.6426 16.6773C11.8812 16.6773 8.34124 16.1187 5.63458 15.1173Z" fill="#FE9C0F"/>
</g>
</g>
</g>
</svg>
