<svg width="29" height="28" viewBox="0 0 29 28" fill="none" xmlns="http://www.w3.org/2000/svg">
<g id="Frame">
<path id="Vector" d="M14.5085 2.92913L14.5034 2.92017L5.09375 8.35329L5.11503 8.39025V14.8003H5.11895C5.19903 20.1514 9.27947 24.5317 14.5043 25.0813C19.7291 24.532 23.8098 20.1516 23.8896 14.8003V8.38745L23.9081 8.35553L14.5085 2.92913ZM14.5043 22.2763V14.4702H7.90271V9.98289L14.5043 6.17181V14.4702H21.1019V14.8003H21.1067C21.0288 18.6063 18.1838 21.7437 14.5043 22.2763Z" fill="#E6E6E6"/>
<g id="Vector_2">
<path d="M14.5043 14.4699V22.276C18.1838 21.7435 21.0288 18.6061 21.1067 14.8H21.1019V14.4699H14.5043Z" fill="#FE9C0F"/>
<path d="M7.90271 14.4699H14.5043V6.17156L7.90271 9.98264V14.4699Z" fill="#FE9C0F"/>
</g>
</g>
</svg>
