<svg width="32" height="32" viewBox="0 0 32 32" fill="none" xmlns="http://www.w3.org/2000/svg">
<g id="pepicons-pop:expand">
<g id="Vector">
<path d="M25.3716 14.4952C24.7849 13.1099 23.932 11.8665 22.8663 10.8428L21.9869 9.99623C21.957 9.96828 21.9211 9.94844 21.8822 9.93846C21.8433 9.92848 21.8027 9.92866 21.7639 9.93899C21.7251 9.94932 21.6894 9.96948 21.6597 9.9977C21.6301 10.0259 21.6075 10.0613 21.594 10.1009L21.2011 11.2835C20.9564 12.0254 20.5061 12.7831 19.8684 13.5282C19.8261 13.5758 19.7778 13.5885 19.7445 13.5916C19.7113 13.5948 19.6599 13.5885 19.6146 13.5441C19.5723 13.506 19.5511 13.449 19.5541 13.3919C19.666 11.4832 19.122 9.33041 17.9313 6.98738C16.9461 5.04066 15.5771 3.52196 13.8667 2.463L12.6186 1.69255C12.4554 1.5911 12.2468 1.72426 12.2559 1.924L12.3224 3.44587C12.3677 4.48581 12.2529 5.40527 11.9809 6.16937C11.6485 7.10469 11.171 7.97342 10.5606 8.75337C10.1357 9.29542 9.65421 9.7857 9.12508 10.215C7.85071 11.2428 6.81447 12.5597 6.09398 14.0672C5.37526 15.5879 5.00088 17.2621 5 18.9594C5 20.4559 5.28105 21.9048 5.8371 23.2713C6.37402 24.587 7.14885 25.7811 8.11874 26.7875C9.09788 27.8021 10.2342 28.601 11.5004 29.1559C12.812 29.7329 14.2021 30.0246 15.6376 30.0246C17.073 30.0246 18.4632 29.7329 19.7747 29.159C21.0379 28.6075 22.1865 27.803 23.1564 26.7906C24.1355 25.7761 24.9031 24.5903 25.438 23.2745C25.9933 21.9117 26.2781 20.4446 26.2751 18.9626C26.2751 17.4153 25.9729 15.9125 25.3716 14.4952Z" fill="#FDBF1C"/>
<path d="M25.3716 14.4952C24.7849 13.1099 23.932 11.8665 22.8663 10.8428L21.9869 9.99623C21.957 9.96828 21.9211 9.94844 21.8822 9.93846C21.8433 9.92848 21.8027 9.92866 21.7639 9.93899C21.7251 9.94932 21.6894 9.96948 21.6597 9.9977C21.6301 10.0259 21.6075 10.0613 21.594 10.1009L21.2011 11.2835C20.9564 12.0254 20.5061 12.7831 19.8684 13.5282C19.8261 13.5758 19.7778 13.5885 19.7445 13.5916C19.7113 13.5948 19.6599 13.5885 19.6146 13.5441C19.5723 13.506 19.5511 13.449 19.5541 13.3919C19.666 11.4832 19.122 9.33041 17.9313 6.98738C16.9461 5.04066 15.5771 3.52196 13.8667 2.463L12.6186 1.69255C12.4554 1.5911 12.2468 1.72426 12.2559 1.924L12.3224 3.44587C12.3677 4.48581 12.2529 5.40527 11.9809 6.16937C11.6485 7.10469 11.171 7.97342 10.5606 8.75337C10.1357 9.29542 9.65421 9.7857 9.12508 10.215C7.85071 11.2428 6.81447 12.5597 6.09398 14.0672C5.37526 15.5879 5.00088 17.2621 5 18.9594C5 20.4559 5.28105 21.9048 5.8371 23.2713C6.37402 24.587 7.14885 25.7811 8.11874 26.7875C9.09788 27.8021 10.2342 28.601 11.5004 29.1559C12.812 29.7329 14.2021 30.0246 15.6376 30.0246C17.073 30.0246 18.4632 29.7329 19.7747 29.159C21.0379 28.6075 22.1865 27.803 23.1564 26.7906C24.1355 25.7761 24.9031 24.5903 25.438 23.2745C25.9933 21.9117 26.2781 20.4446 26.2751 18.9626C26.2751 17.4153 25.9729 15.9125 25.3716 14.4952Z" fill="#E6E6E6"/>
</g>
<g id="Vector_2">
<path d="M12.2973 24.5255C12.4903 24.0372 12.771 23.5988 13.1216 23.2379L13.4109 22.9395C13.4208 22.9297 13.4326 22.9227 13.4454 22.9192C13.4582 22.9156 13.4715 22.9157 13.4843 22.9193C13.4971 22.923 13.5088 22.9301 13.5186 22.94C13.5283 22.95 13.5358 22.9625 13.5402 22.9764L13.6695 23.3933C13.75 23.6548 13.8982 23.922 14.108 24.1846C14.1219 24.2014 14.1378 24.2059 14.1487 24.207C14.1597 24.2081 14.1766 24.2059 14.1915 24.1902C14.2054 24.1768 14.2124 24.1567 14.2114 24.1366C14.1746 23.4637 14.3536 22.7048 14.7453 21.8788C15.0695 21.1926 15.5199 20.6572 16.0827 20.2839L16.4933 20.0123C16.547 19.9765 16.6156 20.0235 16.6126 20.0939L16.5908 20.6304C16.5759 20.997 16.6136 21.3211 16.7031 21.5905C16.8125 21.9202 16.9696 22.2264 17.1705 22.5014C17.3102 22.6925 17.4687 22.8653 17.6428 23.0166C18.0621 23.379 18.403 23.8432 18.6401 24.3746C18.8765 24.9107 18.9997 25.5009 19 26.0992C19 26.6268 18.9075 27.1376 18.7246 27.6193C18.5479 28.0831 18.293 28.504 17.9739 28.8588C17.6517 29.2165 17.2778 29.4982 16.8612 29.6938C16.4297 29.8972 15.9723 30 15.5 30C15.0277 30 14.5703 29.8972 14.1388 29.6949C13.7232 29.5004 13.3453 29.2168 13.0261 28.86C12.704 28.5023 12.4514 28.0843 12.2754 27.6204C12.0928 27.14 11.999 26.6228 12 26.1004C12 25.5549 12.0994 25.0251 12.2973 24.5255Z" fill="#FDBF1C"/>
<path d="M12.2973 24.5255C12.4903 24.0372 12.771 23.5988 13.1216 23.2379L13.4109 22.9395C13.4208 22.9297 13.4326 22.9227 13.4454 22.9192C13.4582 22.9156 13.4715 22.9157 13.4843 22.9193C13.4971 22.923 13.5088 22.9301 13.5186 22.94C13.5283 22.95 13.5358 22.9625 13.5402 22.9764L13.6695 23.3933C13.75 23.6548 13.8982 23.922 14.108 24.1846C14.1219 24.2014 14.1378 24.2059 14.1487 24.207C14.1597 24.2081 14.1766 24.2059 14.1915 24.1902C14.2054 24.1768 14.2124 24.1567 14.2114 24.1366C14.1746 23.4637 14.3536 22.7048 14.7453 21.8788C15.0695 21.1926 15.5199 20.6572 16.0827 20.2839L16.4933 20.0123C16.547 19.9765 16.6156 20.0235 16.6126 20.0939L16.5908 20.6304C16.5759 20.997 16.6136 21.3211 16.7031 21.5905C16.8125 21.9202 16.9696 22.2264 17.1705 22.5014C17.3102 22.6925 17.4687 22.8653 17.6428 23.0166C18.0621 23.379 18.403 23.8432 18.6401 24.3746C18.8765 24.9107 18.9997 25.5009 19 26.0992C19 26.6268 18.9075 27.1376 18.7246 27.6193C18.5479 28.0831 18.293 28.504 17.9739 28.8588C17.6517 29.2165 17.2778 29.4982 16.8612 29.6938C16.4297 29.8972 15.9723 30 15.5 30C15.0277 30 14.5703 29.8972 14.1388 29.6949C13.7232 29.5004 13.3453 29.2168 13.0261 28.86C12.704 28.5023 12.4514 28.0843 12.2754 27.6204C12.0928 27.14 11.999 26.6228 12 26.1004C12 25.5549 12.0994 25.0251 12.2973 24.5255Z" fill="#FE9C0F"/>
</g>
</g>
</svg>
