<svg width="142" height="33" viewBox="0 0 142 33" fill="none" xmlns="http://www.w3.org/2000/svg">
<g id="Clip path group">
<mask id="mask0_631_290" style="mask-type:luminance" maskUnits="userSpaceOnUse" x="0" y="0" width="142" height="33">
<g id="clip0_7747_53282">
<path id="Vector" d="M0 0.722168H142V32.2778H0V0.722168Z" fill="white"/>
</g>
</mask>
<g mask="url(#mask0_631_290)">
<g id="Group">
<path id="Vector_2" d="M62.6817 27.2789V19.0294H70.3512V27.2789H76.1037V5.6062H70.3497V13.8557H62.6817V5.6062H56.9277V27.2789H62.6817ZM94.9617 27.2789V22.1023H84.3205V19.0294H93.3642V13.8557H84.3205V10.7813H94.9631V5.6062H78.568V27.2789H94.9617ZM103.054 27.2789V19.5147H103.502C105.26 19.5147 106.058 20.0647 106.921 21.4877L110.468 27.2789H117.021L113.953 22.3953C112.867 20.6793 111.907 19.2893 109.703 18.7394C113.345 18.4148 116.126 16.571 116.126 12.3982C116.126 7.61224 112.546 5.6062 107.561 5.6062H97.3032V27.2789H103.054ZM107.625 10.7813C109.255 10.7813 110.054 11.4605 110.054 12.8189C110.054 14.1458 109.255 14.858 107.625 14.858H103.054V10.7813H107.625ZM134.637 27.2789V22.1023H123.998V19.0294H133.04V13.8557H123.998V10.7813H134.639V5.6062H118.244V27.2789H134.637ZM141.987 27.2759V21.7462H136.235V27.2759H141.987Z" fill="#F3E6E9"/>
<path id="Vector_3" d="M141.989 27.276V21.7462H136.236V27.276H141.989Z" fill="#FC66FF"/>
<path id="Vector_4" d="M18.3548 27.7461L18.4096 27.7747L18.4717 27.7702L44.5007 26.1713L42.1858 30.3983L15.9216 32.0121L0.322266 24.1743L2.67859 19.8692L18.3548 27.7461ZM23.2095 9.62716L22.3678 5.58504L24.6162 1.34155L27.6603 11.6633L23.2095 9.62716ZM19.4228 18.3485L9.42952 19.0473L1.75706 15.2486L4.12965 10.9179L19.4213 18.3485H19.4228Z" fill="#212528" stroke="#FDBF1C" stroke-width="0.364353"/>
<path id="Vector_5" d="M44.9147 25.9068L18.4671 27.5327L2.45508 19.5386L19.7939 18.4747L4.0304 10.6053L11.7724 3.97114L27.8273 11.9622L24.6796 0.722412L40.0216 8.33784L44.9147 25.9068Z" fill="#FDBF1C"/>
</g>
</g>
</g>
</svg>
