<svg width="152" height="33" viewBox="0 0 152 33" fill="none" xmlns="http://www.w3.org/2000/svg">
<g clip-path="url(#clip0_631_97)">
<path d="M17.3441 33C26.553 33 34.0183 25.6127 34.0183 16.5C34.0183 7.38733 26.553 0 17.3441 0C8.13523 0 0.669922 7.38733 0.669922 16.5C0.669922 25.6127 8.13523 33 17.3441 33Z" fill="#989898"/>
<path fill-rule="evenodd" clip-rule="evenodd" d="M13.677 13.8404C14.7185 13.8404 15.7035 14.098 16.5633 14.5497L16.7208 14.4348L25.0285 7.10059L27.1479 9.35116L25.9691 10.3893L26.9945 11.4314L25.9449 12.3585L24.9115 11.3243L24.2212 11.9385L25.2425 12.9806L23.1716 14.8112L22.1341 13.7849L20.5315 15.1995L21.5569 16.2337L19.5223 18.0484C19.708 18.6269 19.8089 19.245 19.8089 19.8829C19.8089 23.2191 17.0639 25.9254 13.677 25.9254C10.2901 25.9254 7.54102 23.2191 7.54102 19.8829C7.54102 16.5467 10.2901 13.8404 13.677 13.8404ZM13.677 16.19C15.7439 16.19 17.4231 17.8423 17.4231 19.8829C17.4231 21.9195 15.7439 23.5718 13.677 23.5718C11.6061 23.5718 9.93079 21.9195 9.93079 19.8829C9.93079 17.8423 11.6061 16.19 13.677 16.19Z" fill="#FEFEFE"/>
<path d="M43.9062 22.0951V10.7661H47.652V22.0951H43.9062Z" fill="#D0D0D0"/>
<path d="M58.6633 22.0951L53.7649 16.5953V22.0951H50.3242V10.7661H53.5954L58.4938 16.3483V10.7661H61.9346V22.0951H58.6633Z" fill="#D0D0D0"/>
<path d="M70.0021 10.5684C71.7313 10.5684 73.098 10.991 74.1035 11.8363C75.1097 12.6706 75.6121 13.8672 75.6121 15.426H72.0361C72.0361 14.7674 71.8555 14.2459 71.4935 13.8617C71.1434 13.4775 70.6405 13.2853 69.9851 13.2853C69.2281 13.2853 68.6687 13.5159 68.3072 13.977C67.9568 14.438 67.7817 15.0802 67.7817 15.9035V16.9574C67.7817 17.7697 67.9568 18.412 68.3072 18.884C68.6687 19.3451 69.2168 19.5756 69.9512 19.5756C70.6744 19.5756 71.2225 19.3945 71.5951 19.0322C71.9684 18.6699 72.1546 18.1595 72.1546 17.5008H75.6121C75.6121 19.0487 75.121 20.2343 74.1381 21.0576C73.1658 21.8809 71.7877 22.2926 70.0021 22.2926C68.0134 22.2926 66.5048 21.7986 65.4766 20.8106C64.4596 19.8226 63.9512 18.3626 63.9512 16.4305C63.9512 14.4984 64.4596 13.0383 65.4766 12.0503C66.5048 11.0624 68.0134 10.5684 70.0021 10.5684Z" fill="#D0D0D0"/>
<path d="M88.7042 14.2405C88.7042 14.9321 88.5122 15.5579 88.1284 16.1177C87.7438 16.6776 87.1843 17.0893 86.4498 17.3527L89.0436 22.0951H84.8396L82.7721 17.962H81.3821V22.0951H77.6367V10.7661H84.7718C85.608 10.7661 86.3199 10.9252 86.9077 11.2436C87.5068 11.551 87.9527 11.9736 88.2469 12.5115C88.5518 13.0385 88.7042 13.6148 88.7042 14.2405ZM84.8911 14.3887C84.8911 14.0924 84.7888 13.8454 84.5855 13.6477C84.3823 13.4502 84.1339 13.3514 83.8397 13.3514H81.3821V15.4426H83.8397C84.1339 15.4426 84.3823 15.3438 84.5855 15.1462C84.7888 14.9376 84.8911 14.6851 84.8911 14.3887Z" fill="#D0D0D0"/>
<path d="M97.3376 22.0951H93.5922V17.6986L88.9648 10.7661H93.2698L95.5072 14.5369H95.575L97.8125 10.7661H101.897L97.3376 17.6986V22.0951Z" fill="#D0D0D0"/>
<path d="M109.833 10.7661C110.557 10.7661 111.2 10.9308 111.765 11.2601C112.331 11.5784 112.771 12.0231 113.088 12.5939C113.404 13.1537 113.562 13.785 113.562 14.4875V14.7016C113.562 15.4042 113.404 16.0409 113.088 16.6117C112.771 17.1826 112.331 17.6327 111.765 17.962C111.2 18.2804 110.557 18.4395 109.833 18.4395H107.036V22.0951H103.291V10.7661H109.833ZM107.036 15.7884H108.579C108.975 15.7884 109.268 15.6896 109.46 15.492C109.663 15.2944 109.766 15.0255 109.766 14.6852V14.5534C109.766 14.2021 109.663 13.9332 109.46 13.7465C109.268 13.5489 108.975 13.4502 108.579 13.4502H107.036V15.7884Z" fill="#D0D0D0"/>
<path d="M122.236 13.6642V22.0951H118.491V13.6642H114.66V10.7661H126.05V13.6642H122.236Z" fill="#D0D0D0"/>
<path d="M127.756 10.7661H137.84V13.4831H131.501V15.0474H136.925V17.6491H131.501V19.3781H137.959V22.0951H127.756V10.7661Z" fill="#D0D0D0"/>
<path d="M145.037 10.7661C149.116 10.7661 151.156 12.6543 151.156 16.4306C151.156 20.2069 149.116 22.0951 145.037 22.0951H139.986V10.7661H145.037ZM143.732 19.3781H144.969C146.54 19.3781 147.325 18.5603 147.325 16.9246V15.9366C147.325 14.3009 146.54 13.4831 144.969 13.4831H143.732V19.3781Z" fill="#D0D0D0"/>
</g>
<defs>
<clipPath id="clip0_631_97">
<rect width="151" height="33" fill="white" transform="translate(0.669922)"/>
</clipPath>
</defs>
</svg>
