<svg width="225" height="49" viewBox="0 0 225 49" fill="none" xmlns="http://www.w3.org/2000/svg">
<g id="Frame" clip-path="url(#clip0_631_266)">
<g id="Group 1948759676">
<path id="Vector" d="M24.8457 49C38.5675 49 49.6913 38.031 49.6913 24.5C49.6913 10.9691 38.5675 0 24.8457 0C11.1238 0 0 10.9691 0 24.5C0 38.031 11.1238 49 24.8457 49Z" fill="#EB5643"/>
<path id="Vector_2" fill-rule="evenodd" clip-rule="evenodd" d="M19.3813 20.5509C20.9332 20.5509 22.4009 20.9333 23.6821 21.604L23.9167 21.4334L36.2958 10.5432L39.4538 13.885L37.6974 15.4264L39.2253 16.9738L37.6613 18.3505L36.1214 16.8149L35.0928 17.7268L36.6146 19.2741L33.5289 21.9923L31.983 20.4684L29.5949 22.5688L31.1228 24.1045L28.0912 26.799C28.3678 27.658 28.5183 28.5758 28.5183 29.523C28.5183 34.4768 24.428 38.4952 19.3813 38.4952C14.3346 38.4952 10.2383 34.4768 10.2383 29.523C10.2383 24.5692 14.3346 20.5509 19.3813 20.5509ZM19.3813 24.0397C22.4611 24.0397 24.9633 26.4931 24.9633 29.523C24.9633 32.547 22.4611 35.0005 19.3813 35.0005C16.2955 35.0005 13.7992 32.547 13.7992 29.523C13.7992 26.4931 16.2955 24.0397 19.3813 24.0397Z" fill="#FEFEFE"/>
</g>
<path id="Vector_3" d="M64.4238 32.8078V15.986H70.0053V32.8078H64.4238Z" fill="white"/>
<path id="Vector_4" d="M86.4141 32.8078L79.1151 24.6414V32.8078H73.9883V15.986H78.8626L86.1615 24.2746V15.986H91.2885V32.8078H86.4141Z" fill="white"/>
<path id="Vector_5" d="M103.309 15.6925C105.886 15.6925 107.922 16.3201 109.421 17.5752C110.92 18.814 111.669 20.5908 111.669 22.9054H106.34C106.34 21.9274 106.071 21.1531 105.532 20.5826C105.01 20.0121 104.261 19.7268 103.284 19.7268C102.156 19.7268 101.322 20.0692 100.784 20.7538C100.262 21.4384 100.001 22.392 100.001 23.6144V25.1793C100.001 26.3855 100.262 27.3391 100.784 28.04C101.322 28.7246 102.139 29.0669 103.233 29.0669C104.311 29.0669 105.128 28.798 105.683 28.26C106.239 27.7221 106.517 26.9642 106.517 25.9861H111.669C111.669 28.2845 110.937 30.0449 109.472 31.2675C108.023 32.4899 105.97 33.1012 103.309 33.1012C100.346 33.1012 98.0981 32.3677 96.566 30.9007C95.0506 29.4337 94.293 27.2658 94.293 24.3969C94.293 21.528 95.0506 19.36 96.566 17.893C98.0981 16.426 100.346 15.6925 103.309 15.6925Z" fill="white"/>
<path id="Vector_6" d="M131.177 21.1449C131.177 22.1719 130.891 23.101 130.319 23.9323C129.746 24.7637 128.912 25.3749 127.818 25.766L131.683 32.8078H125.418L122.338 26.6707H120.266V32.8078H114.686V15.986H125.317C126.563 15.986 127.624 16.2222 128.5 16.695C129.393 17.1514 130.057 17.7789 130.495 18.5776C130.95 19.36 131.177 20.2158 131.177 21.1449ZM125.495 21.365C125.495 20.9249 125.343 20.5582 125.04 20.2647C124.737 19.9714 124.367 19.8247 123.928 19.8247H120.266V22.9298H123.928C124.367 22.9298 124.737 22.7831 125.04 22.4898C125.343 22.18 125.495 21.8051 125.495 21.365Z" fill="white"/>
<path id="Vector_7" d="M144.04 32.8078H138.46V26.2796L131.564 15.986H137.979L141.313 21.5851H141.414L144.748 15.986H150.835L144.04 26.2796V32.8078Z" fill="white"/>
<path id="Vector_8" d="M162.663 15.986C163.74 15.986 164.699 16.2304 165.541 16.7195C166.384 17.1921 167.04 17.8523 167.512 18.6999C167.983 19.5312 168.218 20.4685 168.218 21.5117V21.8295C168.218 22.8728 167.983 23.8182 167.512 24.6658C167.04 25.5135 166.384 26.1818 165.541 26.6707C164.699 27.1435 163.74 27.3798 162.663 27.3798H158.495V32.8078H152.914V15.986H162.663ZM158.495 23.4433H160.793C161.383 23.4433 161.82 23.2965 162.106 23.0032C162.409 22.7098 162.562 22.3105 162.562 21.8051V21.6096C162.562 21.0879 162.409 20.6886 162.106 20.4114C161.82 20.118 161.383 19.9714 160.793 19.9714H158.495V23.4433Z" fill="white"/>
<path id="Vector_9" d="M181.14 20.2892V32.8078H175.56V20.2892H169.852V15.986H186.823V20.2892H181.14Z" fill="white"/>
<path id="Vector_10" d="M189.365 15.986H204.392V20.0203H194.946V22.3431H203.028V26.2062H194.946V28.7735H204.568V32.8078H189.365V15.986Z" fill="white"/>
<path id="Vector_11" d="M215.118 15.986C221.196 15.986 224.235 18.7896 224.235 24.3969C224.235 30.0041 221.196 32.8078 215.118 32.8078H207.592V15.986H215.118ZM213.174 28.7735H215.017C217.357 28.7735 218.527 27.5591 218.527 25.1304V23.6633C218.527 21.2346 217.357 20.0203 215.017 20.0203H213.174V28.7735Z" fill="white"/>
</g>
<defs>
<clipPath id="clip0_631_266">
<rect width="225" height="49" fill="white"/>
</clipPath>
</defs>
</svg>
