<svg width="33" height="44" viewBox="0 0 33 44" fill="none" xmlns="http://www.w3.org/2000/svg">
<g clip-path="url(#clip0_631_19)">
<path d="M30.3988 21.1526L30.3987 21.1525C29.6282 19.3746 28.5082 17.7793 27.1091 16.4662L27.109 16.466L25.9384 15.365C25.9382 15.3648 25.9379 15.3645 25.9376 15.3643C25.9247 15.3527 25.9096 15.3448 25.8939 15.3409C25.8779 15.3368 25.8612 15.3369 25.8452 15.3411C25.8292 15.3453 25.8139 15.3535 25.8008 15.3657C25.7879 15.3777 25.7776 15.3931 25.7712 15.4109C25.7711 15.4112 25.771 15.4115 25.7709 15.4117L25.2478 16.9503L30.3988 21.1526ZM30.3988 21.1526C31.1886 22.9713 31.5855 24.8996 31.5854 26.8858L31.5854 26.8862C31.5892 28.7882 31.2151 30.6709 30.4859 32.4195L30.4858 32.4196C29.7832 34.1081 28.7753 35.6293 27.4895 36.9309L27.489 36.9315C26.2154 38.2301 24.7076 39.2618 23.0499 39.969L23.0497 39.9691C21.328 40.7051 19.5036 41.0791 17.6189 41.079C16.2894 41.079 14.9901 40.8928 13.736 40.5235C13.2121 40.3692 12.6959 40.1829 12.1886 39.9648L12.1883 39.9647M30.3988 21.1526L12.1883 39.9647M23.4246 19.953L23.4246 19.9529C23.3204 20.0674 23.1975 20.099 23.117 20.1065C23.0714 20.1108 23.0145 20.1086 22.9533 20.0906C22.8928 20.0729 22.8306 20.0404 22.7744 19.9876C22.6653 19.8897 22.6155 19.7494 22.6228 19.6151L22.6228 19.6138C22.7689 17.1788 22.0594 14.4139 20.4833 11.3835L20.4831 11.3832C19.1868 8.88034 17.3885 6.93265 15.1444 5.57507L23.4246 19.953ZM23.4246 19.953L23.4274 19.9498M23.4246 19.953L23.4274 19.9498M23.4274 19.9498C24.2919 18.9629 24.9097 17.951 25.2477 16.9507L23.4274 19.9498ZM12.1883 39.9647C10.5265 39.2532 9.03482 38.2286 7.74856 36.9263C6.47517 35.6352 5.45763 34.1031 4.75243 32.4146M12.1883 39.9647L4.75243 32.4146M4.75243 32.4146C4.02229 30.6613 3.65316 28.8022 3.6532 26.881L4.75243 32.4146ZM13.48 4.57114L15.1442 5.57492L3.6532 26.8809C3.65442 24.7026 4.14622 22.5541 5.09006 20.6029C6.03659 18.6682 7.3976 16.9785 9.07081 15.6601L9.07131 15.6597C9.78997 15.0901 10.4438 14.4396 11.0207 13.7205L11.0208 13.7204C11.8498 12.6855 12.4985 11.5325 12.9501 10.2912C13.3252 9.26178 13.4801 8.03344 13.4187 6.65732L13.4187 6.6573L13.3301 4.67431L13.3301 4.67393C13.3262 4.59135 13.403 4.54482 13.457 4.56069C13.4638 4.5627 13.4713 4.56586 13.4794 4.57078L13.48 4.57114Z" fill="#25282B" stroke="#25282B" stroke-width="0.440402"/>
<path d="M3.21193 26.5864L0.8734 25.8989C0.897915 23.8392 1.3608 21.8101 2.22941 19.9532L4.57904 20.6439C3.71925 22.504 3.25344 24.5292 3.21193 26.5864Z" fill="#25282B" stroke="#25282B" stroke-width="0.440402" stroke-linejoin="round"/>
<path d="M4.76723 20.2423L2.42011 19.5524C3.34299 17.749 4.62986 16.1676 6.19528 14.9135L8.46066 15.5794C6.93164 16.8581 5.67438 18.445 4.76723 20.2423Z" fill="#25282B" stroke="#25282B" stroke-width="0.440402" stroke-linejoin="round"/>
<path d="M1.93192 31.5019C1.26495 29.8671 0.910611 28.1414 0.875449 26.36L3.20994 27.0463C3.22883 28.8129 3.55188 30.529 4.17338 32.1608L1.93192 31.5019Z" fill="#25282B" stroke="#25282B" stroke-width="0.440402" stroke-linejoin="round"/>
<path d="M8.89487 15.2423L6.62728 14.5757C7.18187 14.1041 7.69445 13.5828 8.15889 13.0178L10.4751 13.6987C9.99649 14.2625 9.46745 14.7793 8.89487 15.2423Z" fill="#25282B" stroke="#25282B" stroke-width="0.440402" stroke-linejoin="round"/>
<mask id="path-6-inside-1_631_19" fill="white">
<path d="M10.3324 3.86748C10.3217 3.63626 10.54 3.47351 10.7414 3.53277L13.5182 4.34905C13.3168 4.28988 13.0986 4.4526 13.1093 4.68379L10.3324 3.86748Z"/>
</mask>
<path d="M10.3324 3.86748C10.3217 3.63626 10.54 3.47351 10.7414 3.53277L13.5182 4.34905C13.3168 4.28988 13.0986 4.4526 13.1093 4.68379L10.3324 3.86748Z" fill="#25282B"/>
<path d="M13.4563 4.56038L13.4565 4.56041L13.5802 4.13775L13.5801 4.13772L13.4563 4.56038ZM10.7414 3.53277L10.6171 3.95527L10.6172 3.9553L10.7414 3.53277ZM10.3324 3.86748L9.89248 3.88791C9.90119 4.07556 10.028 4.23702 10.2082 4.29L10.3324 3.86748ZM13.1093 4.68379L12.9851 5.10631C13.1217 5.14647 13.2693 5.1181 13.3813 5.03017C13.4933 4.94224 13.5559 4.80559 13.5493 4.66336L13.1093 4.68379ZM13.5182 4.34905L13.3941 4.77159C13.6274 4.84014 13.8722 4.70656 13.9408 4.47321C14.0093 4.23987 13.8758 3.99512 13.6424 3.92652L13.5182 4.34905ZM10.8657 3.11027C10.3692 2.96422 9.86794 3.35939 9.89248 3.88791L10.7723 3.84706C10.774 3.88194 10.7563 3.9162 10.731 3.93627C10.7084 3.95415 10.6669 3.96992 10.6171 3.95527L10.8657 3.11027ZM10.2082 4.29L12.9851 5.10631L13.2335 4.26126L10.4566 3.44496L10.2082 4.29ZM13.5493 4.66336C13.5509 4.69824 13.5332 4.7325 13.5079 4.75256C13.4854 4.77044 13.4439 4.78622 13.3941 4.77159L13.6423 3.9265C13.1459 3.78067 12.6449 4.17578 12.6694 4.70421L13.5493 4.66336ZM13.6424 3.92652L10.8656 3.11025L10.6172 3.9553L13.394 4.77157L13.6424 3.92652Z" fill="#25282B" mask="url(#path-6-inside-1_631_19)"/>
<path d="M12.9638 6.36874L10.6336 5.68375L10.5658 4.16591L12.896 4.8509L12.9638 6.36874Z" fill="#25282B" stroke="#25282B" stroke-width="0.440402" stroke-linejoin="round"/>
<mask id="path-9-inside-2_631_19" fill="white">
<path d="M10.7383 3.53174C10.7636 3.53919 10.7886 3.55015 10.8129 3.56491L13.5898 4.38202C13.5655 4.36725 13.5405 4.35629 13.5152 4.34884L10.7383 3.53174Z"/>
</mask>
<path d="M10.7383 3.53174C10.7636 3.53919 10.7886 3.55015 10.8129 3.56491L13.5898 4.38202C13.5655 4.36725 13.5405 4.35629 13.5152 4.34884L10.7383 3.53174Z" fill="#25282B"/>
<path d="M10.8129 3.56491L10.5841 3.94121C10.6168 3.96108 10.6519 3.97661 10.6886 3.9874L10.8129 3.56491ZM10.7383 3.53174L10.8626 3.10925C10.6293 3.04059 10.3845 3.17407 10.3158 3.40738C10.2471 3.64069 10.3806 3.88551 10.6139 3.95421L10.7383 3.53174ZM13.5152 4.34884L13.6396 3.92638L13.6395 3.92635L13.5152 4.34884ZM13.5898 4.38202L13.4655 4.80451C13.6777 4.86693 13.9032 4.76235 13.9926 4.56009C14.082 4.35783 14.0076 4.12062 13.8186 4.00572L13.5898 4.38202ZM11.0417 3.18862C10.985 3.15415 10.9249 3.1276 10.8627 3.10927L10.6139 3.95421C10.6022 3.95078 10.5922 3.94614 10.5841 3.94121L11.0417 3.18862ZM10.614 3.95423L13.3909 4.77133L13.6395 3.92635L10.8626 3.10925L10.614 3.95423ZM13.3908 4.77131C13.3792 4.76788 13.3691 4.76325 13.361 4.75831L13.8186 4.00572C13.762 3.97126 13.7018 3.94471 13.6396 3.92638L13.3908 4.77131ZM13.7141 3.95953L10.9372 3.14242L10.6886 3.9874L13.4655 4.80451L13.7141 3.95953Z" fill="#25282B" mask="url(#path-9-inside-2_631_19)"/>
<path d="M10.7764 13.3285L8.45267 12.6454C9.14451 11.733 9.70017 10.734 10.1088 9.66756L12.4618 10.3592C12.0492 11.4262 11.4836 12.4228 10.7764 13.3285Z" fill="#25282B" stroke="#25282B" stroke-width="0.440402" stroke-linejoin="round"/>
<path d="M12.5924 9.94558L10.2382 9.25354C10.532 8.35032 10.6653 7.3046 10.6406 6.14825L12.9735 6.83402C13.0118 8.01475 12.8819 9.0614 12.5924 9.94558Z" fill="#25282B" stroke="#25282B" stroke-width="0.440402" stroke-linejoin="round"/>
<path d="M13.676 4.69395L12.5624 4.3666L12.3826 4.25812L13.4961 4.58547L13.676 4.69395Z" fill="#25282B" stroke="#25282B" stroke-width="0.440402" stroke-linejoin="round"/>
<path d="M4.93311 36.0686C3.78656 34.8967 2.84965 33.5285 2.16415 32.0265L4.38806 32.6802C5.00626 34.1314 5.84934 35.4691 6.88347 36.6419L4.93311 36.0686Z" fill="#25282B" stroke="#25282B" stroke-width="0.440402" stroke-linejoin="round"/>
<path d="M18.0451 10.2804C16.9542 8.20186 15.5194 6.49355 13.771 5.18099L15.1599 5.5893C17.2532 6.86141 18.9574 8.64835 20.2265 10.9216L18.0451 10.2804Z" fill="#25282B" stroke="#25282B" stroke-width="0.440402" stroke-linejoin="round"/>
<path d="M7.48857 37.2748C8.27038 38.0604 9.12595 38.7476 10.0477 39.3285L9.41254 39.1418C8.03003 38.5483 6.7654 37.7379 5.63905 36.7311L7.48857 37.2748Z" fill="#25282B" stroke="#25282B" stroke-width="0.440402" stroke-linejoin="round"/>
<mask id="path-17-inside-3_631_19" fill="white">
<path d="M10.8944 39.9182C10.362 39.7614 9.83761 39.5721 9.32227 39.3506L12.0992 40.1669C12.6145 40.3884 13.139 40.5777 13.6714 40.7345L10.8944 39.9182Z"/>
</mask>
<path d="M10.8944 39.9182C10.362 39.7614 9.83761 39.5721 9.32227 39.3506L12.0992 40.1669C12.6145 40.3884 13.139 40.5777 13.6714 40.7345L10.8944 39.9182Z" fill="#25282B"/>
<path d="M9.32227 39.3506L9.44647 38.9281C9.22297 38.8624 8.98695 38.9821 8.90796 39.2012C8.82896 39.4204 8.93431 39.6632 9.14833 39.7552L9.32227 39.3506ZM10.8944 39.9182L10.77 40.3406L10.7702 40.3407L10.8944 39.9182ZM13.6714 40.7345L13.5472 41.157C13.7805 41.2256 14.0252 41.0921 14.0939 40.8588C14.1625 40.6255 14.0291 40.3807 13.7958 40.312L13.6714 40.7345ZM12.0992 40.1669L12.2731 39.7623C12.2569 39.7553 12.2403 39.7493 12.2234 39.7444L12.0992 40.1669ZM9.14833 39.7552C9.67968 39.9836 10.2207 40.1789 10.77 40.3406L11.0189 39.4957C10.5034 39.3439 9.99553 39.1606 9.4962 38.946L9.14833 39.7552ZM10.7702 40.3407L13.5472 41.157L13.7956 40.312L11.0187 39.4957L10.7702 40.3407ZM13.7958 40.312C13.2804 40.1602 12.7724 39.977 12.2731 39.7623L11.9252 40.5715C12.4566 40.7999 12.9976 40.9952 13.547 41.1569L13.7958 40.312ZM12.2234 39.7444L9.44647 38.9281L9.19806 39.7731L11.975 40.5894L12.2234 39.7444Z" fill="#25282B" mask="url(#path-17-inside-3_631_19)"/>
<path d="M20.2796 18.6487C20.3828 16.2812 19.7183 13.6517 18.3142 10.821L20.5113 11.4669C21.9984 14.3505 22.6983 16.9925 22.6207 19.3369L20.2796 18.6487Z" fill="#25282B" stroke="#25282B" stroke-width="0.440402" stroke-linejoin="round"/>
<path d="M15.5912 40.928C15.1863 40.868 14.7851 40.7899 14.3881 40.6939C14.5316 40.6984 14.6754 40.7009 14.8196 40.7012L15.5912 40.928Z" fill="#25282B" stroke="#25282B" stroke-width="0.440402" stroke-linejoin="round"/>
<mask id="path-21-inside-4_631_19" fill="white">
<path d="M20.0648 18.8086C20.0608 18.883 20.089 18.9575 20.1454 19.0071L22.9223 19.8242C22.8659 19.7746 22.8377 19.7001 22.8418 19.6257L20.0648 18.8086Z"/>
</mask>
<path d="M20.0648 18.8086C20.0608 18.883 20.089 18.9575 20.1454 19.0071L22.9223 19.8242C22.8659 19.7746 22.8377 19.7001 22.8418 19.6257L20.0648 18.8086Z" fill="#25282B"/>
<path d="M20.1454 19.0071L19.8546 19.3378C19.9027 19.3801 19.9596 19.4115 20.0211 19.4296L20.1454 19.0071ZM20.0648 18.8086L20.1891 18.3861C20.06 18.3481 19.9206 18.3713 19.8106 18.4489C19.7007 18.5266 19.6324 18.6504 19.6251 18.7848L20.0648 18.8086ZM22.8418 19.6257L23.2815 19.6495C23.2926 19.4456 23.162 19.2609 22.9661 19.2032L22.8418 19.6257ZM22.9223 19.8242L22.798 20.2467C22.9962 20.305 23.2083 20.2177 23.308 20.0368C23.4078 19.8559 23.3683 19.6299 23.2132 19.4935L22.9223 19.8242ZM20.4363 18.6764C20.49 18.7236 20.5072 18.7843 20.5046 18.8324L19.6251 18.7848C19.6144 18.9818 19.688 19.1913 19.8546 19.3378L20.4363 18.6764ZM19.9405 19.2311L22.7174 20.0482L22.9661 19.2032L20.1891 18.3861L19.9405 19.2311ZM22.402 19.6019C22.3913 19.7989 22.465 20.0084 22.6315 20.1549L23.2132 19.4935C23.2669 19.5407 23.2841 19.6014 23.2815 19.6495L22.402 19.6019ZM23.0467 19.4017L20.2697 18.5846L20.0211 19.4296L22.798 20.2467L23.0467 19.4017Z" fill="#25282B" mask="url(#path-21-inside-4_631_19)"/>
<mask id="path-23-inside-5_631_19" fill="white">
<path d="M20.1406 19.0093C20.1706 19.038 20.2027 19.0545 20.2327 19.0634L23.0095 19.8804C22.9795 19.8716 22.9475 19.8551 22.9175 19.8264L20.1406 19.0093Z"/>
</mask>
<path d="M20.1406 19.0093C20.1706 19.038 20.2027 19.0545 20.2327 19.0634L23.0095 19.8804C22.9795 19.8716 22.9475 19.8551 22.9175 19.8264L20.1406 19.0093Z" fill="#25282B"/>
<path d="M22.9473 20.0917L22.9477 20.0918L23.0715 19.6692L23.0717 19.6692L22.9473 20.0917ZM20.2327 19.0634L20.357 18.6409L20.3569 18.6409L20.2327 19.0634ZM20.1406 19.0093L20.2649 18.5868C20.0701 18.5295 19.8613 18.6128 19.7595 18.7885C19.6577 18.9643 19.6893 19.1869 19.836 19.3273L20.1406 19.0093ZM22.9175 19.8264L23.2222 19.5083C23.1713 19.4596 23.1094 19.4238 23.0419 19.4039L22.9175 19.8264ZM23.0095 19.8804L22.8852 20.3029C23.1185 20.3716 23.3633 20.2381 23.432 20.0048C23.5007 19.7715 23.3672 19.5267 23.1339 19.458L23.0095 19.8804ZM20.3569 18.6409C20.3901 18.6506 20.4211 18.6681 20.4452 18.6912L19.836 19.3273C19.9202 19.4079 20.0152 19.4585 20.1085 19.4859L20.3569 18.6409ZM20.0163 19.4318L22.7932 20.2489L23.0419 19.4039L20.2649 18.5868L20.0163 19.4318ZM22.6129 20.1444C22.697 20.225 22.7919 20.2755 22.8851 20.3029L23.1339 19.458C23.1671 19.4677 23.1981 19.4852 23.2222 19.5083L22.6129 20.1444ZM23.1338 19.458L20.357 18.6409L20.1084 19.4859L22.8852 20.3029L23.1338 19.458Z" fill="#25282B" mask="url(#path-23-inside-5_631_19)"/>
<mask id="path-25-inside-6_631_19" fill="white">
<path d="M20.2363 19.0625C20.2668 19.0715 20.2952 19.0725 20.3176 19.0704L23.0945 19.8875C23.0722 19.8896 23.0437 19.8886 23.0132 19.8796L20.2363 19.0625Z"/>
</mask>
<path d="M20.2363 19.0625C20.2668 19.0715 20.2952 19.0725 20.3176 19.0704L23.0945 19.8875C23.0722 19.8896 23.0437 19.8886 23.0132 19.8796L20.2363 19.0625Z" fill="#25282B"/>
<path d="M20.3176 19.0704L20.4419 18.6479C20.3883 18.6322 20.3322 18.6268 20.2767 18.6319L20.3176 19.0704ZM20.2363 19.0625L20.3605 18.64C20.1272 18.5714 19.8824 18.7049 19.8138 18.9382C19.7452 19.1716 19.8787 19.4163 20.112 19.485L20.2363 19.0625ZM23.0132 19.8796L22.8889 20.3021L22.889 20.3021L23.0132 19.8796ZM23.0945 19.8875L23.1354 20.326C23.3457 20.3064 23.5124 20.1403 23.5328 19.93C23.5532 19.7198 23.4214 19.5247 23.2188 19.4651L23.0945 19.8875ZM20.2767 18.6319C20.3009 18.6297 20.3294 18.6308 20.3605 18.64L20.1121 19.485C20.2042 19.5121 20.2896 19.5154 20.3584 19.5089L20.2767 18.6319ZM20.112 19.485L22.8889 20.3021L23.1376 19.4571L20.3606 18.64L20.112 19.485ZM22.889 20.3021C22.9811 20.3292 23.0665 20.3325 23.1354 20.326L23.0536 19.449C23.0778 19.4468 23.1063 19.4479 23.1375 19.4571L22.889 20.3021ZM23.2188 19.4651L20.4419 18.6479L20.1932 19.4929L22.9702 20.31L23.2188 19.4651Z" fill="#25282B" mask="url(#path-25-inside-6_631_19)"/>
<mask id="path-27-inside-7_631_19" fill="white">
<path d="M20.3203 19.0715C20.3646 19.0673 20.4291 19.0508 20.4855 18.9888L23.2625 19.8059C23.206 19.8679 23.1416 19.8844 23.0972 19.8886L20.3203 19.0715Z"/>
</mask>
<path d="M20.3203 19.0715C20.3646 19.0673 20.4291 19.0508 20.4855 18.9888L23.2625 19.8059C23.206 19.8679 23.1416 19.8844 23.0972 19.8886L20.3203 19.0715Z" fill="#25282B"/>
<path d="M20.4855 18.9888L20.6099 18.5663C20.4481 18.5187 20.2733 18.5677 20.1598 18.6924L20.4855 18.9888ZM20.3203 19.0715L20.2794 18.633C20.0691 18.6526 19.9023 18.8188 19.882 19.029C19.8616 19.2392 19.9934 19.4343 20.196 19.494L20.3203 19.0715ZM23.0972 19.8886L22.9729 20.3111C23.0265 20.3268 23.0825 20.3323 23.1381 20.3271L23.0972 19.8886ZM23.2625 19.8059L23.5882 20.1022C23.6903 19.99 23.7275 19.8331 23.6865 19.687C23.6456 19.5409 23.5323 19.4262 23.3868 19.3834L23.2625 19.8059ZM20.1598 18.6924C20.1763 18.6743 20.1986 18.6584 20.2237 18.6475C20.2473 18.6374 20.2674 18.6341 20.2794 18.633L20.3612 19.51C20.478 19.4991 20.6593 19.4522 20.8113 19.2851L20.1598 18.6924ZM20.196 19.494L22.9729 20.3111L23.2215 19.4661L20.4446 18.649L20.196 19.494ZM23.1381 20.3271C23.2549 20.3162 23.4363 20.2693 23.5882 20.1022L22.9367 19.5095C22.9532 19.4914 22.9755 19.4755 23.0007 19.4647C23.0242 19.4545 23.0443 19.4512 23.0563 19.4501L23.1381 20.3271ZM23.3868 19.3834L20.6099 18.5663L20.3612 19.4113L23.1382 20.2284L23.3868 19.3834Z" fill="#25282B" mask="url(#path-27-inside-7_631_19)"/>
<path d="M23.1855 19.552L20.8701 18.8714C21.5644 18.0332 22.0802 17.1793 22.3973 16.332L24.7506 17.0238C24.4349 17.8542 23.9098 18.7057 23.1855 19.552Z" fill="#25282B" stroke="#25282B" stroke-width="0.440402" stroke-linejoin="round"/>
<path d="M24.8883 16.6089L22.5343 15.9169L22.9164 14.7933L25.2704 15.4853L24.8883 16.6089Z" fill="#25282B" stroke="#25282B" stroke-width="0.440402" stroke-linejoin="round"/>
<mask id="path-31-inside-8_631_19" fill="white">
<path d="M22.7812 14.5222C22.7993 14.4707 22.8294 14.4245 22.8689 14.3877L25.6458 15.2048C25.6063 15.2416 25.5762 15.2878 25.5582 15.3393L22.7812 14.5222Z"/>
</mask>
<path d="M22.7812 14.5222C22.7993 14.4707 22.8294 14.4245 22.8689 14.3877L25.6458 15.2048C25.6063 15.2416 25.5762 15.2878 25.5582 15.3393L22.7812 14.5222Z" fill="#25282B"/>
<path d="M22.8689 14.3877L22.9932 13.9652C22.844 13.9213 22.6826 13.9594 22.5687 14.0655L22.8689 14.3877ZM22.7812 14.5222L22.3656 14.3767C22.3257 14.4905 22.3343 14.6158 22.3894 14.7232C22.4444 14.8306 22.5412 14.9107 22.6569 14.9447L22.7812 14.5222ZM25.5582 15.3393L25.4338 15.7618C25.6589 15.828 25.8963 15.7063 25.9738 15.4849L25.5582 15.3393ZM25.6458 15.2048L25.946 15.527C26.0618 15.4192 26.1108 15.2576 26.0744 15.1036C26.0381 14.9496 25.9219 14.827 25.7701 14.7823L25.6458 15.2048ZM22.5687 14.0655C22.4764 14.1515 22.407 14.2585 22.3656 14.3767L23.1969 14.6678C23.1916 14.6829 23.1824 14.6975 23.1691 14.7099L22.5687 14.0655ZM22.6569 14.9447L25.4338 15.7618L25.6825 14.9169L22.9056 14.0997L22.6569 14.9447ZM25.9738 15.4849C25.9685 15.5 25.9593 15.5146 25.946 15.527L25.3456 14.8826C25.2533 14.9686 25.1839 15.0756 25.1425 15.1938L25.9738 15.4849ZM25.7701 14.7823L22.9932 13.9652L22.7446 14.8102L25.5215 15.6273L25.7701 14.7823Z" fill="#25282B" mask="url(#path-31-inside-8_631_19)"/>
<mask id="path-33-inside-9_631_19" fill="white">
<path d="M22.873 14.3862C22.9126 14.3493 22.9603 14.323 23.012 14.3096L25.7889 15.1267C25.7372 15.1402 25.6895 15.1664 25.65 15.2033L22.873 14.3862Z"/>
</mask>
<path d="M22.873 14.3862C22.9126 14.3493 22.9603 14.323 23.012 14.3096L25.7889 15.1267C25.7372 15.1402 25.6895 15.1664 25.65 15.2033L22.873 14.3862Z" fill="#25282B"/>
<path d="M23.012 14.3096L23.1363 13.8871C23.0597 13.8645 22.9783 13.8633 22.901 13.8834L23.012 14.3096ZM22.873 14.3862L22.5729 14.0639C22.4571 14.1718 22.4081 14.3334 22.4444 14.4874C22.4808 14.6413 22.597 14.764 22.7487 14.8086L22.873 14.3862ZM25.65 15.2033L25.5256 15.6257C25.6749 15.6697 25.8363 15.6316 25.9502 15.5255L25.65 15.2033ZM25.7889 15.1267L25.8999 15.5529C26.0914 15.503 26.2262 15.3315 26.2293 15.1336C26.2324 14.9357 26.1031 14.7601 25.9132 14.7042L25.7889 15.1267ZM22.901 13.8834C22.7778 13.9155 22.6653 13.9778 22.5729 14.0639L23.1732 14.7084C23.1599 14.7209 23.1427 14.7306 23.123 14.7358L22.901 13.8834ZM22.7487 14.8086L25.5256 15.6257L25.7743 14.7808L22.9974 13.9637L22.7487 14.8086ZM25.9502 15.5255C25.9368 15.538 25.9197 15.5477 25.8999 15.5529L25.6779 14.7005C25.5547 14.7326 25.4422 14.7949 25.3498 14.881L25.9502 15.5255ZM25.9132 14.7042L23.1363 13.8871L22.8877 14.7321L25.6646 15.5492L25.9132 14.7042Z" fill="#25282B" mask="url(#path-33-inside-9_631_19)"/>
<mask id="path-35-inside-10_631_19" fill="white">
<path d="M23.0039 14.3106C23.0556 14.2971 23.1098 14.2969 23.1616 14.3099L25.9386 15.127C25.8867 15.114 25.8326 15.1142 25.7808 15.1277L23.0039 14.3106Z"/>
</mask>
<path d="M23.0039 14.3106C23.0556 14.2971 23.1098 14.2969 23.1616 14.3099L25.9386 15.127C25.8867 15.114 25.8326 15.1142 25.7808 15.1277L23.0039 14.3106Z" fill="#25282B"/>
<path d="M23.1616 14.3099L23.286 13.8874C23.2803 13.8857 23.2746 13.8842 23.2689 13.8827L23.1616 14.3099ZM23.0039 14.3106L22.8929 13.8844C22.7014 13.9343 22.5667 14.1058 22.5636 14.3037C22.5605 14.5015 22.6897 14.6772 22.8796 14.7331L23.0039 14.3106ZM25.7808 15.1277L25.6565 15.5502C25.7332 15.5727 25.8145 15.574 25.8918 15.5539L25.7808 15.1277ZM25.9386 15.127L25.8313 15.5541C26.0638 15.6125 26.3004 15.4742 26.3635 15.2428C26.4265 15.0115 26.2929 14.7722 26.0629 14.7045L25.9386 15.127ZM23.2689 13.8827C23.1454 13.8517 23.0161 13.8523 22.8929 13.8844L23.1149 14.7368C23.0951 14.7419 23.0742 14.742 23.0544 14.737L23.2689 13.8827ZM22.8796 14.7331L25.6565 15.5502L25.9051 14.7052L23.1282 13.8881L22.8796 14.7331ZM25.8918 15.5539C25.872 15.559 25.8511 15.5591 25.8313 15.5541L26.0458 14.6999C25.9223 14.6688 25.7931 14.6694 25.6698 14.7015L25.8918 15.5539ZM26.0629 14.7045L23.286 13.8874L23.0373 14.7324L25.8142 15.5495L26.0629 14.7045Z" fill="#25282B" mask="url(#path-35-inside-10_631_19)"/>
<mask id="path-37-inside-11_631_19" fill="white">
<path d="M23.3017 14.3859C23.2683 14.3553 23.2291 14.3321 23.1867 14.3178L23.1621 14.3105C23.1704 14.3126 23.1786 14.315 23.1867 14.3178L25.939 15.1277C25.9909 15.1407 26.0388 15.1665 26.0786 15.203L23.3017 14.3859Z"/>
</mask>
<path d="M23.3017 14.3859C23.2683 14.3553 23.2291 14.3321 23.1867 14.3178L23.1621 14.3105C23.1704 14.3126 23.1786 14.315 23.1867 14.3178L25.939 15.1277C25.9909 15.1407 26.0388 15.1665 26.0786 15.203L23.3017 14.3859Z" fill="#25282B"/>
<path d="M23.3017 14.3859L23.0043 14.7107C23.0538 14.756 23.113 14.7894 23.1774 14.8084L23.3017 14.3859ZM23.1621 14.3105L23.2694 13.8834C23.0368 13.825 22.8003 13.9634 22.7372 14.1947C22.6742 14.4261 22.8078 14.6654 23.0378 14.733L23.1621 14.3105ZM25.939 15.1277L25.8147 15.5501C25.8204 15.5518 25.826 15.5534 25.8318 15.5548L25.939 15.1277ZM26.0786 15.203L25.9543 15.6255C26.1509 15.6834 26.3614 15.5979 26.4621 15.4195C26.5629 15.241 26.5272 15.0166 26.376 14.8782L26.0786 15.203ZM23.5991 14.0611C23.5209 13.9895 23.4286 13.9347 23.3278 13.9006L23.0456 14.735C23.0296 14.7295 23.0156 14.7211 23.0043 14.7107L23.5991 14.0611ZM23.3278 13.9006C23.3086 13.8941 23.2891 13.8884 23.2694 13.8834L23.0548 14.7377C23.0517 14.7369 23.0486 14.736 23.0456 14.735L23.3278 13.9006ZM23.0378 14.733L23.0624 14.7403L23.311 13.8953L23.2864 13.8881L23.0378 14.733ZM23.0624 14.7403L25.8147 15.5501L26.0633 14.7052L23.311 13.8953L23.0624 14.7403ZM25.8318 15.5548C25.8119 15.5498 25.7947 15.5402 25.7812 15.5278L26.376 14.8782C26.2829 14.7929 26.1698 14.7315 26.0463 14.7005L25.8318 15.5548ZM26.2029 14.7805L23.426 13.9634L23.1774 14.8084L25.9543 15.6255L26.2029 14.7805Z" fill="#25282B" mask="url(#path-37-inside-11_631_19)"/>
<path d="M26.4358 15.8338L24.5939 15.2924L24.1311 14.857L25.973 15.3985L26.4358 15.8338Z" fill="#25282B" stroke="#25282B" stroke-width="0.440402" stroke-linejoin="round"/>
<path d="M22.4588 40.2016C20.9204 40.7787 19.3059 41.0733 17.6444 41.0769L16.1602 40.6406C17.6099 40.5073 19.0188 40.1542 20.3668 39.5867L22.4588 40.2016Z" fill="#25282B" stroke="#25282B" stroke-width="0.440402" stroke-linejoin="round"/>
<path d="M27.9781 20.0652C27.3039 18.5392 26.3789 17.1453 25.2448 15.9436L27.1408 16.501C28.4077 17.699 29.4435 19.1293 30.1954 20.717L27.9781 20.0652Z" fill="#25282B" stroke="#25282B" stroke-width="0.440402" stroke-linejoin="round"/>
<path d="M27.215 37.1917C26.0175 38.3499 24.6276 39.28 23.1104 39.9377L20.9791 39.3112C22.4367 38.6148 23.7699 37.6705 24.9215 36.5175L27.215 37.1917Z" fill="#25282B" stroke="#25282B" stroke-width="0.440402" stroke-linejoin="round"/>
<path d="M29.2289 25.9039C29.2092 24.0713 28.8603 22.2864 28.1851 20.5894L30.4202 21.2464C31.1445 22.947 31.5267 24.7423 31.5634 26.5902L29.2289 25.9039Z" fill="#25282B" stroke="#25282B" stroke-width="0.440402" stroke-linejoin="round"/>
<path d="M30.3795 32.6448C29.6998 34.2032 28.7563 35.6144 27.5713 36.8363L25.2698 36.1597C26.43 34.9251 27.3565 33.5097 28.0283 31.9537L30.3795 32.6448Z" fill="#25282B" stroke="#25282B" stroke-width="0.440402" stroke-linejoin="round"/>
<path d="M30.5583 32.2358L28.2058 31.5442C28.8606 29.8969 29.2126 28.1399 29.2444 26.362L31.5826 27.0493C31.5658 28.8294 31.2181 30.5897 30.5583 32.2358Z" fill="#25282B" stroke="#25282B" stroke-width="0.440402" stroke-linejoin="round"/>
<path d="M27.602 20.3423L27.6019 20.3422C26.8324 18.5667 25.7139 16.9736 24.3168 15.6622L24.3166 15.6621L23.1463 14.5612C23.146 14.561 23.1457 14.5607 23.1454 14.5605C23.1348 14.551 23.1226 14.5447 23.11 14.5415C23.097 14.5383 23.0836 14.5383 23.0707 14.5417C23.0578 14.545 23.0453 14.5517 23.0345 14.5618C23.0239 14.5716 23.0153 14.5845 23.0099 14.5994C23.0098 14.5997 23.0097 14.5999 23.0097 14.6002L22.4866 16.1385L27.602 20.3423ZM27.602 20.3423C28.3907 22.1586 28.7871 24.0843 28.787 26.0679L28.787 26.0684C28.7908 27.9678 28.4172 29.848 27.689 31.5943L27.6889 31.5944C26.9872 33.2807 25.9807 34.7998 24.6967 36.0996L24.696 36.1003C23.4243 37.3971 21.9185 38.4273 20.2631 39.1336L20.263 39.1337C18.5436 39.8686 16.7217 40.2421 14.8396 40.2421C12.9576 40.242 11.1358 39.8684 9.41681 39.1294L9.41649 39.1293C7.75712 38.4188 6.2675 37.3956 4.98296 36.0951M27.602 20.3423L29.0263 26.0679M20.6594 19.1479L20.6594 19.1479C20.551 19.2669 20.4231 19.2999 20.3394 19.3077C20.2464 19.3163 20.1045 19.2985 19.9822 19.1838C19.8686 19.0817 19.8169 18.9357 19.8244 18.7962L19.8245 18.7948C19.9703 16.3643 19.2621 13.6029 17.6871 10.5744L17.6869 10.5741C16.3921 8.07409 14.5961 6.12906 12.3551 4.7734C12.3551 4.77339 12.3551 4.77338 12.355 4.77337L10.6909 3.7696L10.6902 3.76921C10.6664 3.75475 10.6398 3.75471 10.6131 3.77134C10.5859 3.78829 10.5681 3.81765 10.5698 3.85518L10.5698 3.85559L10.6585 5.83858L10.6585 5.8386C10.7199 7.21654 10.5649 8.44751 10.1887 9.47988C9.73642 10.7232 9.08673 11.8779 8.25637 12.9145L8.25627 12.9146C7.67854 13.6348 7.02365 14.2863 6.30386 14.8568L6.30332 14.8572C4.63242 16.1738 3.27324 17.8612 2.32795 19.7933C1.38537 21.7419 0.894204 23.8875 0.892977 26.0631L20.6594 19.1479ZM20.6594 19.1479L20.6625 19.1445M20.6594 19.1479L20.6625 19.1445M20.6625 19.1445C21.5281 18.1562 22.1475 17.1422 22.4864 16.139L20.6625 19.1445ZM29.0263 26.0679C29.0302 27.999 28.6503 29.9107 27.9098 31.6864C27.1964 33.4008 26.1727 34.9458 24.8669 36.2678C23.5733 37.5869 22.0415 38.635 20.357 39.3537C18.6079 40.1014 16.754 40.4814 14.8396 40.4814C12.9253 40.4813 11.0714 40.1012 9.32231 39.3493C7.63367 38.6263 6.11835 37.5852 4.8126 36.2631M29.0263 26.0679C29.0264 24.0519 28.6234 22.0937 27.8214 20.247L29.0263 26.0679ZM4.8126 36.2631L4.98296 36.0951M4.8126 36.2631C3.51917 34.9517 2.4859 33.3959 1.76991 31.6815L4.8126 36.2631ZM4.98296 36.0951C3.71129 34.8058 2.69509 33.2758 1.99081 31.5895M4.98296 36.0951L1.99081 31.5895M1.99081 31.5895C1.2616 29.8385 0.892942 27.9819 0.892977 26.0632L1.99081 31.5895Z" fill="#FDBF1C" stroke="#25282B" stroke-width="0.478559"/>
</g>
<defs>
<clipPath id="clip0_631_19">
<rect width="32.8008" height="43.9991" fill="white" transform="translate(0.00195312)"/>
</clipPath>
</defs>
</svg>
