<svg width="118" height="33" viewBox="0 0 118 33" fill="none" xmlns="http://www.w3.org/2000/svg">
<g id="Pitchtalk_white_logo 2" clip-path="url(#clip0_631_86)">
<path id="Vector" d="M19.5039 25.0284V7.96973H27.1458C29.4213 7.96973 31.2214 8.50587 32.546 9.57813C33.8876 10.6341 34.5584 12.1126 34.5584 14.0134C34.5584 15.963 33.8535 17.4738 32.4442 18.5462C31.0346 19.6184 29.1835 20.1546 26.891 20.1546H24.4456V25.0284H19.5039ZM24.4456 16.4504H26.7891C27.6722 16.4504 28.3599 16.2473 28.8525 15.8411C29.3618 15.435 29.6165 14.8826 29.6165 14.184C29.6165 13.4529 29.3618 12.9005 28.8525 12.5269C28.3599 12.1369 27.6636 11.942 26.7636 11.942H24.4456V16.4504Z" fill="#D0D0D0"/>
<path id="Vector_2" d="M34.553 25.0281V11.8441H39.3929V25.0281H34.553ZM34.4512 10.65V7.23828H39.4947V10.65H34.4512Z" fill="#D0D0D0"/>
<path id="Vector_3" d="M45.655 25.2965C42.5643 25.2965 41.0189 23.8425 41.0189 20.9343V15.5731H39.3887V11.8445H41.0189V8.50586H45.8588V11.8445H49.0685V15.5731H45.8588V20.0327C45.8588 20.91 46.3004 21.3486 47.1835 21.3486C47.7609 21.3486 48.3722 21.2024 49.0175 20.91V24.541C48.0835 25.0448 46.9626 25.2965 45.655 25.2965Z" fill="#D0D0D0"/>
<path id="Vector_4" d="M55.5135 25.345C53.4589 25.345 51.7436 24.6789 50.3681 23.3468C48.9924 21.9983 48.3047 20.3655 48.3047 18.4484C48.3047 16.5475 49.001 14.931 50.3936 13.5988C51.786 12.2504 53.5521 11.5762 55.692 11.5762C58.3241 11.5762 60.2855 12.5591 61.5762 14.5249L58.341 16.7668C57.6957 15.9058 56.8637 15.4753 55.8448 15.4753C54.9786 15.4753 54.2908 15.7596 53.7813 16.3282C53.272 16.8968 53.0173 17.6035 53.0173 18.4484C53.0173 19.3095 53.272 20.0244 53.7813 20.593C54.2908 21.1616 54.9533 21.4459 55.7683 21.4459C56.3118 21.4459 56.7703 21.3321 57.1438 21.1046C57.5344 20.8773 57.942 20.528 58.3665 20.0568L61.6526 22.3232C60.2261 24.3378 58.1797 25.345 55.5135 25.345Z" fill="#D0D0D0"/>
<path id="Vector_5" d="M61.457 25.0281V7.23828H66.2969V13.6475C67.4348 12.2503 68.8103 11.5517 70.4236 11.5517C71.8841 11.5517 73.0303 11.9904 73.8625 12.8677C74.6946 13.7287 75.1105 14.9066 75.1105 16.4013V25.0281H70.2708V17.8879C70.2708 17.1892 70.0924 16.645 69.7358 16.255C69.3962 15.8651 68.9292 15.6702 68.3348 15.6702C67.7234 15.6702 67.231 15.8651 66.8574 16.255C66.4837 16.645 66.2969 17.1892 66.2969 17.8879V25.0281H61.457Z" fill="#D0D0D0"/>
<path id="Vector_6" d="M81.1687 25.2965C78.078 25.2965 76.5326 23.8425 76.5326 20.9343V15.5731H74.9023V11.8445H76.5326V8.50586H81.3725V11.8445H84.5821V15.5731H81.3725V20.0327C81.3725 20.91 81.814 21.3486 82.6972 21.3486C83.2746 21.3486 83.8858 21.2024 84.5311 20.91V24.541C83.5972 25.0448 82.4763 25.2965 81.1687 25.2965Z" fill="#D0D0D0"/>
<path id="Vector_7" d="M88.6986 25.3208C87.3401 25.3208 86.2277 24.9633 85.3615 24.2486C84.4955 23.5175 84.0625 22.502 84.0625 21.2023C84.0625 19.8702 84.5465 18.8466 85.5145 18.1317C86.4824 17.4169 87.7986 17.0595 89.4627 17.0595C90.6685 17.0595 91.7723 17.23 92.7743 17.5713V17.3519C92.7743 15.9222 91.8571 15.2074 90.0231 15.2074C88.7835 15.2074 87.5183 15.4511 86.2277 15.9385L85.2342 12.673C86.9664 11.9906 88.8259 11.6494 90.8128 11.6494C93.1902 11.6494 94.9393 12.1856 96.0603 13.2578C97.0452 14.1839 97.5377 15.5811 97.5377 17.4493V25.0283H92.7488V23.6636C91.7129 24.7684 90.3627 25.3208 88.6986 25.3208ZM90.4307 22.4209C91.1439 22.4209 91.7213 22.2259 92.1629 21.8359C92.6044 21.4298 92.8251 20.9018 92.8251 20.2519V19.6427C92.2648 19.4152 91.6364 19.3014 90.9401 19.3014C90.2438 19.3014 89.7005 19.4558 89.3099 19.7645C88.9193 20.0569 88.7239 20.4632 88.7239 20.983C88.7239 21.4216 88.8769 21.7709 89.1826 22.0308C89.5051 22.2909 89.9212 22.4209 90.4307 22.4209Z" fill="#D0D0D0"/>
<path id="Vector_8" d="M98.1914 25.0281V7.23828H103.031V25.0281H98.1914Z" fill="#D0D0D0"/>
<path id="Vector_9" d="M103.816 25.0281V7.23828H108.656V16.255L112.401 11.8441H117.877L113.089 17.1324L118.005 25.0281H112.681L109.904 20.5441L108.656 21.9332V25.0281H103.816Z" fill="#D0D0D0"/>
<path id="Vector_10" d="M0.613281 15.0563L8.0217 7.96875L18.3934 7.96877V17.8912L10.985 25.0285H0.613281V15.0563Z" fill="#D0D0D0"/>
</g>
<defs>
<clipPath id="clip0_631_86">
<rect width="117" height="32" fill="white" transform="translate(0.669922 0.5)"/>
</clipPath>
</defs>
</svg>
