<svg width="151" height="41" viewBox="0 0 151 41" fill="none" xmlns="http://www.w3.org/2000/svg">
<g id="Pitchtalk_white_logo 2" clip-path="url(#clip0_631_279)">
<path id="Vector" d="M24.3066 31.427V9.57056H34.1692C37.106 9.57056 39.4293 10.2575 41.1387 11.6313C42.8702 12.9843 43.7359 14.8786 43.7359 17.314C43.7359 19.8119 42.8262 21.7477 41.0073 23.1217C39.1882 24.4955 36.7991 25.1824 33.8404 25.1824H30.6844V31.427H24.3066ZM30.6844 20.4364H33.7089C34.8486 20.4364 35.7362 20.1762 36.3719 19.6558C37.0292 19.1354 37.358 18.4277 37.358 17.5326C37.358 16.5959 37.0292 15.8881 36.3719 15.4094C35.7362 14.9098 34.8376 14.66 33.676 14.66H30.6844V20.4364Z" fill="#FEFEFE"/>
<path id="Vector_2" d="M43.729 31.427V14.5351H49.9754V31.427H43.729ZM43.5977 13.0051V8.63379H50.1068V13.0051H43.5977Z" fill="#FEFEFE"/>
<path id="Vector_3" d="M58.0581 31.7706C54.0691 31.7706 52.0747 29.9076 52.0747 26.1816V19.3124H49.9707V14.5352H52.0747V10.2576H58.321V14.5352H62.4634V19.3124H58.321V25.0263C58.321 26.1503 58.8909 26.7123 60.0307 26.7123C60.7759 26.7123 61.5648 26.5251 62.3976 26.1503V30.8026C61.1923 31.4481 59.7456 31.7706 58.0581 31.7706Z" fill="#FEFEFE"/>
<path id="Vector_4" d="M70.7803 31.8328C68.1285 31.8328 65.9148 30.9793 64.1396 29.2725C62.3642 27.5447 61.4766 25.4527 61.4766 22.9964C61.4766 20.5609 62.3752 18.4898 64.1725 16.783C65.9696 15.0552 68.2489 14.1914 71.0106 14.1914C74.4076 14.1914 76.939 15.4507 78.6047 17.9695L74.4294 20.8419C73.5966 19.7388 72.5228 19.1872 71.2078 19.1872C70.0899 19.1872 69.2023 19.5514 68.5447 20.28C67.8874 21.0085 67.5586 21.914 67.5586 22.9964C67.5586 24.0997 67.8874 25.0157 68.5447 25.7442C69.2023 26.4727 70.0572 26.837 71.1091 26.837C71.8105 26.837 72.4023 26.6912 72.8843 26.3997C73.3884 26.1085 73.9145 25.6609 74.4623 25.0572L78.7034 27.961C76.8624 30.5422 74.2212 31.8328 70.7803 31.8328Z" fill="#FEFEFE"/>
<path id="Vector_5" d="M78.4512 31.4268V8.63367H84.6975V16.8455C86.166 15.0553 87.9413 14.1603 90.0234 14.1603C91.9083 14.1603 93.3877 14.7223 94.4616 15.8463C95.5356 16.9496 96.0723 18.4587 96.0723 20.3737V31.4268H89.8262V22.2785C89.8262 21.3833 89.5959 20.686 89.1358 20.1864C88.6975 19.6868 88.0947 19.437 87.3277 19.437C86.5385 19.437 85.9031 19.6868 85.4209 20.1864C84.9386 20.686 84.6975 21.3833 84.6975 22.2785V31.4268H78.4512Z" fill="#FEFEFE"/>
<path id="Vector_6" d="M103.89 31.7706C99.9012 31.7706 97.9067 29.9076 97.9067 26.1816V19.3124H95.8027V14.5352H97.9067V10.2576H104.153V14.5352H108.295V19.3124H104.153V25.0263C104.153 26.1503 104.723 26.7123 105.863 26.7123C106.608 26.7123 107.397 26.5251 108.23 26.1503V30.8026C107.024 31.4481 105.578 31.7706 103.89 31.7706Z" fill="#FEFEFE"/>
<path id="Vector_7" d="M113.612 31.8016C111.859 31.8016 110.423 31.3436 109.305 30.4278C108.188 29.4911 107.629 28.1901 107.629 26.5248C107.629 24.818 108.254 23.5065 109.503 22.5906C110.752 21.6748 112.451 21.2168 114.598 21.2168C116.155 21.2168 117.579 21.4353 118.872 21.8725V21.5915C118.872 19.7597 117.689 18.8438 115.322 18.8438C113.722 18.8438 112.089 19.156 110.423 19.7805L109.141 15.5966C111.377 14.7223 113.777 14.2852 116.341 14.2852C119.409 14.2852 121.667 14.9721 123.113 16.3459C124.384 17.5324 125.02 19.3226 125.02 21.7163V31.4269H118.839V29.6784C117.503 31.0939 115.76 31.8016 113.612 31.8016ZM115.848 28.0861C116.768 28.0861 117.513 27.8363 118.083 27.3366C118.653 26.8163 118.938 26.1398 118.938 25.3071V24.5265C118.215 24.2351 117.404 24.0893 116.505 24.0893C115.607 24.0893 114.905 24.2871 114.401 24.6826C113.897 25.0573 113.645 25.5778 113.645 26.2438C113.645 26.8058 113.842 27.2533 114.237 27.5863C114.653 27.9196 115.19 28.0861 115.848 28.0861Z" fill="#FEFEFE"/>
<path id="Vector_8" d="M125.861 31.4268V8.63367H132.108V31.4268H125.861Z" fill="#FEFEFE"/>
<path id="Vector_9" d="M133.119 31.4268V8.63367H139.365V20.1864L144.198 14.5349H151.266L145.086 21.3105L151.431 31.4268H144.56L140.976 25.6818L139.365 27.4615V31.4268H133.119Z" fill="#FEFEFE"/>
<path id="Vector_10" d="M-0.0742188 18.65L9.48708 9.56909L22.8728 9.56911V22.2822L13.3115 31.4269H-0.0742188V18.65Z" fill="#B486FF"/>
</g>
<defs>
<clipPath id="clip0_631_279">
<rect width="151" height="41" fill="white"/>
</clipPath>
</defs>
</svg>
